<svg xmlns="http://www.w3.org/2000/svg" viewBox="0 0 18.288 18.288">
  <defs>
    <style>
      .cls-1 {
        opacity: 0.7;
      }

      .cls-2 {
        fill: #fff;
      }
    </style>
  </defs>
  <g id="arroba" class="cls-1" transform="translate(0 0)">
    <g id="Groupe_58" data-name="Groupe 58">
      <g id="Groupe_57" data-name="Groupe 57">
        <path id="Tracé_42" data-name="Tracé 42" class="cls-2" d="M9.108,0a9.144,9.144,0,0,0,0,18.288,9.229,9.229,0,0,0,9.18-9.18A9.164,9.164,0,0,0,9.108,0Zm0,17.223a8.08,8.08,0,1,1,8.115-8.115A8.094,8.094,0,0,1,9.108,17.223Z"/>
      </g>
    </g>
    <g id="Groupe_60" data-name="Groupe 60" transform="translate(3.215 3.215)">
      <g id="Groupe_59" data-name="Groupe 59">
        <path id="Tracé_43" data-name="Tracé 43" class="cls-2" d="M95.894,90a5.929,5.929,0,0,0,0,11.859,6.11,6.11,0,0,0,3.655-1.214.536.536,0,0,0-.652-.85,5.024,5.024,0,0,1-3,1,4.865,4.865,0,1,1,4.893-4.9v.536a1.072,1.072,0,0,1-2.143,0V93.75a.536.536,0,0,0-1.072,0v.034a2.761,2.761,0,0,0-1.679-.57,2.679,2.679,0,1,0,0,5.358,2.774,2.774,0,0,0,2.062-.922,2.142,2.142,0,0,0,3.9-1.221v-.536A5.95,5.95,0,0,0,95.894,90Zm0,7.508a1.614,1.614,0,0,1,0-3.229,1.616,1.616,0,1,1,0,3.229Z" transform="translate(-90 -90)"/>
      </g>
    </g>
  </g>
</svg>
