<svg xmlns="http://www.w3.org/2000/svg" width="1876" height="515" viewBox="0 0 1876 515">
  <g id="Groupe_502" data-name="Groupe 502" transform="translate(-28 -218)">
    <path id="Tracé_182" data-name="Tracé 182" d="M-72.109-715.939s111.6,173.4,238.646,151.085,243.8-363.979,506.48-396.6,382.864,212.893,618.077,226.628,269.55,248.948,405.184,231.779" transform="translate(145 1211)" fill="none" stroke="#fff" stroke-width="8"/>
    <g id="Groupe_462" data-name="Groupe 462">
      <g id="Groupe_446" data-name="Groupe 446" transform="translate(225 -295)">
        <circle id="Ellipse_43" data-name="Ellipse 43" cx="24.5" cy="24.5" r="24.5" transform="translate(469 549)" fill="#fff"/>
        <circle id="Ellipse_44" data-name="Ellipse 44" cx="18" cy="18" r="18" transform="translate(476 556)" fill="#9b9b9b"/>
      </g>
      <text id="Scene_4" data-name="Scene 4" transform="translate(666 237)" fill="#efefef" font-size="24" font-family="Qurany-Light, Qurany" font-weight="300"><tspan x="0" y="0">Scene 4</tspan></text>
    </g>
    <g id="Groupe_465" data-name="Groupe 465">
      <g id="Groupe_449" data-name="Groupe 449" transform="translate(997 -90)">
        <circle id="Ellipse_43-2" data-name="Ellipse 43" cx="24.5" cy="24.5" r="24.5" transform="translate(469 549)" fill="#fff"/>
        <circle id="Ellipse_44-2" data-name="Ellipse 44" cx="18" cy="18" r="18" transform="translate(476 556)" fill="#9b9b9b"/>
      </g>
      <text id="Scene_7" data-name="Scene 7" transform="translate(1437 445)" fill="#efefef" font-size="24" font-family="Qurany-Light, Qurany" font-weight="300"><tspan x="0" y="0">Scene 7</tspan></text>
    </g>
    <g id="Groupe_460" data-name="Groupe 460">
      <circle id="Ellipse_41" data-name="Ellipse 41" cx="24.5" cy="24.5" r="24.5" transform="translate(266 622)" fill="#fff"/>
      <circle id="Ellipse_42" data-name="Ellipse 42" cx="18" cy="18" r="18" transform="translate(273 629)" fill="#9b9b9b"/>
      <text id="Scene_2" data-name="Scene 2" transform="translate(238 609)" fill="#efefef" font-size="24" font-family="Qurany-Light, Qurany" font-weight="300"><tspan x="0" y="0">Scene 2</tspan></text>
    </g>
    <g id="Groupe_464" data-name="Groupe 464">
      <g id="Groupe_448" data-name="Groupe 448" transform="translate(738 -170)">
        <circle id="Ellipse_43-3" data-name="Ellipse 43" cx="24.5" cy="24.5" r="24.5" transform="translate(469 549)" fill="#fff"/>
        <circle id="Ellipse_44-3" data-name="Ellipse 44" cx="18" cy="18" r="18" transform="translate(476 556)" fill="#9b9b9b"/>
      </g>
      <text id="Scene_6" data-name="Scene 6" transform="translate(1207 366)" fill="#efefef" font-size="24" font-family="Qurany-Light, Qurany" font-weight="300"><tspan x="0" y="0">Scene 6</tspan></text>
    </g>
    <g id="Groupe_463" data-name="Groupe 463">
      <g id="Groupe_447" data-name="Groupe 447" transform="translate(521 -295)">
        <circle id="Ellipse_43-4" data-name="Ellipse 43" cx="24.5" cy="24.5" r="24.5" transform="translate(469 549)" fill="#fff"/>
        <circle id="Ellipse_44-4" data-name="Ellipse 44" cx="18" cy="18" r="18" transform="translate(476 556)" fill="#9b9b9b"/>
      </g>
      <text id="Scene_5" data-name="Scene 5" transform="translate(960 237)" fill="#efefef" font-size="24" font-family="Qurany-Light, Qurany" font-weight="300"><tspan x="0" y="0">Scene 5</tspan></text>
    </g>
    <g id="Groupe_461" data-name="Groupe 461" transform="translate(-17 22)">
      <g id="Groupe_445" data-name="Groupe 445" transform="translate(31 -139)">
        <circle id="Ellipse_43-5" data-name="Ellipse 43" cx="24.5" cy="24.5" r="24.5" transform="translate(469 549)" fill="#fff"/>
        <circle id="Ellipse_44-5" data-name="Ellipse 44" cx="18" cy="18" r="18" transform="translate(476 556)" fill="#9b9b9b"/>
      </g>
      <text id="Scene_3" data-name="Scene 3" transform="translate(434 397)" fill="#efefef" font-size="24" font-family="Qurany-Light, Qurany" font-weight="300"><tspan x="0" y="0">Scene 3</tspan></text>
    </g>
    <g id="Groupe_466" data-name="Groupe 466">
      <g id="Groupe_450" data-name="Groupe 450" transform="translate(1187 34)">
        <circle id="Ellipse_43-6" data-name="Ellipse 43" cx="24.5" cy="24.5" r="24.5" transform="translate(469 549)" fill="#fff"/>
        <circle id="Ellipse_44-6" data-name="Ellipse 44" cx="18" cy="18" r="18" transform="translate(476 556)" fill="#9b9b9b"/>
      </g>
      <text id="Scene_8" data-name="Scene 8" transform="translate(1662 570)" fill="#efefef" font-size="24" font-family="Qurany-Light, Qurany" font-weight="300"><tspan x="0" y="0">Scene 8</tspan></text>
    </g>
    <g id="Groupe_467" data-name="Groupe 467">
      <g id="Groupe_451" data-name="Groupe 451" transform="translate(1356 135)">
        <circle id="Ellipse_43-7" data-name="Ellipse 43" cx="24.5" cy="24.5" r="24.5" transform="translate(469 549)" fill="#fff"/>
        <circle id="Ellipse_44-7" data-name="Ellipse 44" cx="18" cy="18" r="18" transform="translate(476 556)" fill="#9b9b9b"/>
      </g>
      <text id="Scene_9" data-name="Scene 9" transform="translate(1796 669)" fill="#efefef" font-size="24" font-family="Qurany-Light, Qurany" font-weight="300"><tspan x="0" y="0">Scene 9</tspan></text>
    </g>
    <g id="Groupe_459" data-name="Groupe 459">
      <circle id="Ellipse_39" data-name="Ellipse 39" cx="24.5" cy="24.5" r="24.5" transform="translate(53 478)" fill="#fff"/>
      <circle id="Ellipse_40" data-name="Ellipse 40" cx="18" cy="18" r="18" transform="translate(60 485)" fill="#9b9b9b"/>
      <text id="Scene_1" data-name="Scene 1" transform="translate(29 464)" fill="#efefef" font-size="24" font-family="Qurany-Light, Qurany" font-weight="300"><tspan x="0" y="0">Scene 1</tspan></text>
    </g>
  </g>
</svg>
