<svg xmlns="http://www.w3.org/2000/svg" xmlns:xlink="http://www.w3.org/1999/xlink" viewBox="0 0 74.466 74.466">
  <defs>
    <style>
      .cls-1 {
        fill: #e8e8e8;
      }

      .cls-2 {
        fill: #4b4b4b;
      }

      .cls-3 {
        filter: url(#benjamin-parker-736167-unsplash);
      }
    </style>
    <filter id="benjamin-parker-736167-unsplash" x="0" y="0" width="74.466" height="74.466" filterUnits="userSpaceOnUse">
      <feOffset dx="3" dy="5" input="SourceAlpha"/>
      <feGaussianBlur stdDeviation="4.5" result="blur"/>
      <feFlood flood-opacity="0.149"/>
      <feComposite operator="in" in2="blur"/>
      <feComposite in="SourceGraphic"/>
    </filter>
  </defs>
  <g id="Groupe_213" data-name="Groupe 213" transform="translate(-220.034 -81.5)">
    <g class="cls-3" transform="matrix(1, 0, 0, 1, 220.03, 81.5)">
      <circle id="benjamin-parker-736167-unsplash-2" data-name="benjamin-parker-736167-unsplash" class="cls-1" cx="23.733" cy="23.733" r="23.733" transform="translate(10.5 8.5)"/>
    </g>
    <g id="maps-and-flags_1_" data-name="maps-and-flags (1)" transform="translate(174.427 101)">
      <g id="Groupe_203" data-name="Groupe 203" transform="translate(70.573)">
        <g id="Groupe_202" data-name="Groupe 202" transform="translate(0)">
          <path id="Tracé_62" data-name="Tracé 62" class="cls-2" d="M79.627,0a9.064,9.064,0,0,0-9.054,9.054c0,6.2,8.1,15.291,8.447,15.675a.816.816,0,0,0,1.213,0c.345-.384,8.447-9.48,8.447-15.675A9.064,9.064,0,0,0,79.627,0Zm0,22.935C76.9,19.7,72.2,13.306,72.2,9.054a7.423,7.423,0,1,1,14.847,0C87.05,13.306,82.354,19.7,79.627,22.935Z" transform="translate(-70.573)"/>
        </g>
      </g>
      <g id="Groupe_205" data-name="Groupe 205" transform="translate(75.072 4.499)">
        <g id="Groupe_204" data-name="Groupe 204">
          <path id="Tracé_63" data-name="Tracé 63" class="cls-2" d="M167.263,92.134a4.555,4.555,0,1,0,4.555,4.555A4.56,4.56,0,0,0,167.263,92.134Zm0,7.48a2.925,2.925,0,1,1,2.925-2.925A2.928,2.928,0,0,1,167.263,99.614Z" transform="translate(-162.708 -92.134)"/>
        </g>
      </g>
    </g>
  </g>
</svg>
