<svg xmlns="http://www.w3.org/2000/svg" viewBox="0 0 612.226 451.174">
  <defs>
    <style>
      .cls-1, .cls-2 {
        fill: rgba(94,94,94,0);
      }

      .cls-1 {
        stroke: #fff;
        stroke-linecap: round;
        stroke-linejoin: round;
        stroke-miterlimit: 1.5;
        stroke-width: 1.25px;
        fill-rule: evenodd;
      }

      .cls-3 {
        fill: #f21c1c;
      }

      .cls-4 {
        fill: #fff;
      }
    </style>
  </defs>
  <g id="Groupe_346" data-name="Groupe 346" transform="translate(-1118.398 -383.752)">
    <g id="Groupe_233" data-name="Groupe 233" transform="translate(1119.025 384.528)">
      <g id="cartevide" transform="translate(0 0)">
        <g id="Groupe_231" data-name="Groupe 231" transform="translate(0 0)">
          <path id="Tracé_74" data-name="Tracé 74" class="cls-1" d="M578.942,3015.985c-6.433-7.393-12.324,1.419-18.24,5.6-10.191,7.2-33.975,17.729-45.1,28.513-7.2,6.975-24.821,3.5-29.786,5.595-2.805,1.184,2.342,7.657,0,9.186s-10.515-3.089-14.054,0c-3.566,3.118-3.251,12.972-7.341,18.693s-13.977,9.215-17.2,15.629c-5.314,10.577-18.791,41.729-15.627,49.42s35.316-9.04,36.183-2.641c.946,6.984-12.947,9.413,0,21.354,4.285,3.951,30.519-3.356,27.269,7.793-1.048,3.594-8.083.849-13.11,18.861-15,53.76-40.887,37.858-41.112,50.412-.129,7.192,11.259,14.219,15,20.547,5.079,8.585,3.026,13.412,7.652,14.406,13.469,2.891,23.558,20.146,27.373,29.042,1.684,3.924,1.958,10.769,6.922,10.769s9.666-13.887,17.829-15.205,23.423,6.494,28.108,9.187c2,1.151-1.615,5.31,0,6.968,1.661,1.707,8.093.4,9.964,3.275,2.167,3.325-2.277,15,3.041,17.633,5.943,2.941,22.32,3.514,32.617,0,10.68-3.641,20.756-20.122,31.464-21.858,12.376-2.006,26.484,8.455,42.79,9.821,18.494,1.55,44.628,8.361,56.949,4.648,23.173-6.989,34.647,18.042,39.749,16.155,14.519-5.366,38.036-21.789,51.285-30.624,7.195-4.8,2.185-11.9,4.929-17.528s-2.512-17.108-9.019-19.326c-9.509-3.237-11.449-1.9-23.493-2.957-7.741-.678-16.274-7.99-22.444-6.336s-7.534,14.944-14.578,16.263-15.019-9.359-23.493-9.927c-8.895-.594-28.956-7.708-35.449-17.318-2.867-4.244-2.838-16.34,2.412-15.207,7.279,1.57,24.66.313,33.037-8.025,5.735-5.709,14.537-9.037,19.387-15.524,5.856-7.833,4.165-38.369,15.748-32.418,14.494,7.445,50.709,60.7,71.212,75.4,12.185,8.733,34.33,5.877,44.574,5.174,6.416-.44,15.2-3.149,16.885-9.4,1.783-6.6-10.363-20.822-6.187-30.2,4.912-11.036,28.3-21.7,35.659-36.009s8.291-41.007,8.5-49.844c.121-5.249,13.215-4.891,15.732-8.659s1.818-13.322,0-17.317c-1.693-3.721-8.392-2.277-10.907-5.492-4.545-5.807-8.283-30.253-16.781-29.356-6.056.64.161,17.614-5.139,24.394-5.944,7.6-15.715,19.785-27.059,21.226-13.722,1.741-57.6-3.592-55.271-10.772s52.612-21.049,69.22-32.314c13.489-9.149,8.792-53.257,20.871-57.444s47.355,14.458,58.942,22.069c7.788,5.117,22.828,6.056,27.9,0s-5.38-28.772,2.517-36.324c5.465-5.229,22.444,5.966,26.744,3.485s11.143-15.922,0-20.7c-5.084-2.182-16.891.8-26.744-3.275-10.051-4.153-22.329-27.266-33.561-21.646-3.906,1.952-3.374,8.27-6.713,9.714-3.116,1.348-7.6,1.972-10.173,0s3.763-22.919,0-24.989c-5.664-3.117-20.5-10.139-29.576-13.662-10.421-4.038-24.92,6.5-31.149,0-5.759-6.006-15.47-8.605-23.7-7.6-12.317,1.5-30.328-9.135-40.588-15-8.409-4.8-14.081-16.9-20.976-20.169-12.925-6.124-58.579,2.48-64.186,9.61-3.216,4.09,14.858,10.578,12.9,14.044s-20.724,3.662-24.646,6.758c-4.4,3.477-3.4,19.319,5.962,21.332,6.8,1.462,2.44,13.516,1.149,17.845-.891,2.988-8.059,9.281-5.447,10.954,14.186,9.091,4.343,10.9,11.131,12.806,8.146,2.288,23.646.688,34.295-1.689,14.508-3.238,37.2-23.284,54.432-22.071s43.092,21.4,40.83,35.166c1.348,1.931-2.818,15.114-18.015,21.753-3.645,1.591-7.94,6.548-13.015,4.155-3.881-1.83-4.437,8.044-4.946,13.163-.9,9.051-12.475,11.293-16.419,18.812-3.864,7.365-10.908,10.363-14.026,12.658-5.119,3.768-7.3-1.965-16.692-9.187-4.5-3.458-14.166-11.352-18.442-12.567-12.526-3.56-33.526,22.9-45.2,29.462-7.782,4.376-17.318,5.137-24.856,9.927-6.318,4.013-25.655-9.4-35.658-26.822-6.134-10.685-22.221-2.01-29.366-22.283-2.085-5.915-12.224-5.155-17.509-6.615-12.284-3.392-21.936-4.774-29.476-9.117-5.48-3.158-13.054-10.084-16.684-14.256Z" transform="translate(-431.121 -2900.062)"/>
          <g id="Groupe_225" data-name="Groupe 225" transform="translate(20.426 129.572)">
            <path id="Tracé_75" data-name="Tracé 75" class="cls-1" d="M1356.651,8072.265c-21.732,16.3-110.383,56.732-110.838,91.176-.184,13.879,35.64,3.958,40.637,9.094s-14.033,16.229-10.656,21.729,25.965,4.453,18.073,20.535c-11.105,22.635,3.652,64.047-33.115,65.652-20.951.909,26.88,44.335,38.966,42.736,29.354-3.888,41.832,32.932,61.635,40.414,4.467,1.686,20.85,2.977,25.639,0,18.529-11.507,24.47-27.309,52.5-14.98,37.791,16.615,47.7,10.016,60.9,12.785,11.412,2.4,31.271-15.157,27.58-21.514s-46.682-12.832-57.039-24.169c-9.924-10.865-8.793-35.507-5.1-43.84s17.737-.349,27.25-6.168c9.539-5.83,20.575-11.522,26.848-20.993,6.3-9.506,10.926-23.672,10.926-36.042,0-14.157-6.3-39.159-14.269-50.668-7.256-10.481-24.764-9.132-33.534-18.385-12.72-13.42-23.47-14.332-35-21.625-11.466-7.255-20.82-19.658-34.161-22.128-31.555-5.856-36.283-39.331-57.247-23.609Z" transform="translate(-1245.812 -8068.104)"/>
            <path id="Tracé_76" data-name="Tracé 76" class="cls-1" d="M2170.936,8518c-13.422,17.051-87.779,43.568-87.616,69,.049,7.816,38.152,1.039,37.91,16.121-.1,6.574-6.049,19.219-3.436,24.26s6.1,5.7,0,20.453c-8.591,20.758-5,54.691,3.436,59.043,6.657,3.434,34.991,16.238,42.08,28.773,7.006,12.391,118.862,21.816,105.02,3.66-10.927-14.344-24.032-51.258-14.416-58.93,5.852-4.662,15.833-8.318,20.685-17,4.87-8.719-5.885-19.9-5.885-31.24,0-12.984,26.908-26.037,20.745-36.588-5.613-9.617-4.562-9.789-11.347-18.27-9.838-12.312-18.153-13.146-27.068-19.834-8.869-6.654-16.1-18.027-26.424-20.3C2200.211,8531.781,2184.766,8500.434,2170.936,8518Z" transform="translate(-2062.322 -8501.564)"/>
            <path id="Tracé_77" data-name="Tracé 77" class="cls-1" d="M3587.337,10093.214c-9.764,11.673-58.3,11.181-58.185,28.6.038,5.347,25.966,4.4,25.79,14.736-.075,4.5-5.665,18.793-3.764,22.249s11.857,9.251,15.135,19.9c3.388,11,86.477,32.222,88.234,27.793,2.077-5.233,5.407-7.024,10.76-10.681s-5.72-14.072-5.72-21.838c0-8.9,22.6-20.821,18.119-28.056-4.082-6.586-7.463-6.295-12.4-12.107-7.158-8.427-13.207-9-19.693-13.587-6.453-4.553-11.716-12.344-19.223-13.9C3608.635,10102.642,3597.4,10081.174,3587.337,10093.214Z" transform="translate(-3471.904 -10038.906)"/>
            <path id="Tracé_78" data-name="Tracé 78" class="cls-1" d="M16003.67,17977.127c-5.281,3.672-5.477-31.734,3.658-32.494,11.094-.912,12.238,2.85,12.225,8.045C16021.119,17972.889,16012.209,17971.188,16003.67,17977.127Z" transform="translate(-15630.101 -17696.883)"/>
            <path id="Tracé_79" data-name="Tracé 79" class="cls-1" d="M11128.44,11972.433c1.939,1.1,12.24,27.992,10.133,41.033s-20.561,36.919-22.771,37.212c-13.771,1.8,7.36-24.586,9.4-37.212C11127.311,12000.425,11109.982,11961.973,11128.44,11972.433Z" transform="translate(-10863.826 -11872.806)"/>
            <path id="Tracé_80" data-name="Tracé 80" class="cls-1" d="M11418.829,12548.613c.972.781,6.625,19.855,5.071,29.051s-13.312,25.93-14.418,26.137c-6.886,1.277,6.177-16.957,7.731-26.137C11418.771,12568.469,11409.606,12541.215,11418.829,12548.613Z" transform="translate(-11152.72 -12435.054)"/>
            <path id="Tracé_81" data-name="Tracé 81" class="cls-1" d="M9976.821,12534.013c-5.29-2.365-15.062,8-16.192,14.066s4.11,19.9,9.407,22.269,21.22-2.029,22.352-8.087S9982.116,12536.373,9976.821,12534.013Z" transform="translate(-9741.985 -12421.712)"/>
            <path id="Tracé_82" data-name="Tracé 82" class="cls-1" d="M8989.869,14707.8c-7.781-.479-23.742,12.908-27.693,18.392-2.937,4.071-1.027,14.206,3.977,14.519,7.791.487,38.777-6.108,42.732-11.595S8997.654,14708.286,8989.869,14707.8Z" transform="translate(-8767.358 -14541.313)"/>
          </g>
          <path id="Tracé_83" data-name="Tracé 83" class="cls-1" d="M9125.316,7799.79c.014-2.351-3.588-3.374-3.974-5.642-.414-2.471,2.938-3.717,2.089-6.265-.939-2.838-6.506-6.518-7.727-10.764-3.75-13.057-16.831-10.921-19.953-4.176-.717,1.541,3.079,2.483,2.924,4.176-.582,6.354-2.03,5.4-4.282,6.9-2.336,1.549-9.224-.9-9.72,2.4-1.44,9.6,19.331,14.4,23.824,16.4,1.641.731,1.361-4.7,3.132-4.388C9115.476,7799.118,9125.294,7803.077,9125.316,7799.79Z" transform="translate(-8867.647 -7645.548)"/>
          <g id="Groupe_226" data-name="Groupe 226" transform="translate(302.496 177.47)">
            <path id="Tracé_84" data-name="Tracé 84" class="cls-1" d="M12583.881,10032.215c19.559,15.157-55.289,72.261-63.489,43.478-1.281-4.506-25.816-62.918-24.021-69.35,6.369-22.777,38.322-31.083,45.262-26.665C12560.892,9991.943,12571.563,10022.665,12583.881,10032.215Z" transform="translate(-12496.277 -9978.536)"/>
            <path id="Tracé_85" data-name="Tracé 85" class="cls-1" d="M13224.184,10662.637c18.144,8.133-22.628,52.933-31.971,34.809-1.673-3.247-23.1-39.774-21.658-44.737,5.133-17.581,24.435-24.3,30.029-20.895C13216.1,10641.278,13212.754,10657.517,13224.184,10662.637Z" transform="translate(-13153.579 -10614.604)"/>
          </g>
          <g id="Groupe_227" data-name="Groupe 227" transform="translate(353.399 235.203)">
            <path id="Tracé_86" data-name="Tracé 86" class="cls-1" d="M14657.125,12286.719c12.465,11.2-13.274,57.531-37.17,72.111-10.376,6.328,1.063,32.43-6.1,40.891-28.411,33.52-99.081-57.846-85.6-61.84,16.229-4.824,45.335-42.7,46.612-51.162,1.467-9.646,3.035-4.539,22.245,0C14622.147,12292.641,14650.575,12280.836,14657.125,12286.719Z" transform="translate(-14526.56 -12281.236)"/>
          </g>
          <g id="Groupe_228" data-name="Groupe 228" transform="translate(384.86 90.519)">
            <path id="Tracé_87" data-name="Tracé 87" class="cls-1" d="M15854.723,6511.667c-7.336-8.945,84.736,33.787,43.094,27.4a38.659,38.659,0,0,0-9.77,0c-4.35.727-7.531,2.538-10.264,3.727-7.686,3.351-6.949,46.979-17,57.943-10.678,11.644-48.918,19.643-67.119,23.644a9.005,9.005,0,0,1-7.775-1.84c-4.674-3.754-6.139-11.461-2.283-13.273,7.945-3.728,24.762-41,36.287-45.824C15838.121,6555.8,15865.178,6524.408,15854.723,6511.667Z" transform="translate(-15781.393 -6510.431)"/>
            <path id="Tracé_88" data-name="Tracé 88" class="cls-1" d="M16316.607,8027.514c5.109-3.277,14.945,4.372,12.988,9.093-2.592,6.237-.723,32.239-8.91,41.062-8.693,9.372-39.85,15.81-54.656,19.029-4.141.9-6.73-.5-7.93-2.628a6.657,6.657,0,0,1,.461-7.029c4.926-6.729,23.008-31.128,28.82-39.379C16293.146,8039.476,16306.549,8033.956,16316.607,8027.514Z" transform="translate(-16245.373 -7988.707)"/>
            <path id="Tracé_89" data-name="Tracé 89" class="cls-1" d="M16761.01,8396.057c3.926-2.412,11.447,3.226,9.949,6.7-1.979,4.6-.545,23.756-6.828,30.256-6.645,6.9-30.482,11.648-41.82,14.02-6.344,1.327-7.953-4.163-5.707-7.11,3.775-4.963,17.6-22.937,22.041-29.022C16743.066,8404.873,16753.318,8400.809,16761.01,8396.057Z" transform="translate(-16692.221 -8348.214)"/>
          </g>
          <g id="Groupe_229" data-name="Groupe 229" transform="translate(323.668 380.617)">
            <path id="Tracé_90" data-name="Tracé 90" class="cls-1" d="M13349.533,18081.264c-8.536-3.566-13.519,53.521-2.3,58.605,8.319,3.766,39.581-16.162,46.388-24.863,3.553-4.547,4.392-23.148,0-26.74C13386.548,18082.477,13365.31,18087.857,13349.533,18081.264Z" transform="translate(-13340.732 -18081.104)"/>
            <path id="Tracé_91" data-name="Tracé 91" class="cls-1" d="M13646.439,18570.094c-6.344-2.582-11,33.641-2.647,37.314,6.188,2.723,29.44-11.686,34.5-17.982,2.639-3.279,3.262-16.73,0-19.332C13673.035,18565.916,13658.184,18574.865,13646.439,18570.094Z" transform="translate(-13631.803 -18556.719)"/>
          </g>
          <g id="Groupe_230" data-name="Groupe 230" transform="translate(320.366 12.822)">
            <path id="Tracé_92" data-name="Tracé 92" class="cls-1" d="M13261.046,3413.159c-9.908-2.264-27.867-2.264-33.445,0-4.2,1.7,2.654,9.91,0,13.579-2.99,4.144-22.2,5.625-17.966,11.283,7.917,10.567,7.159,29.975,2.692,39.8-3.8,8.363,23.987,2.909,35.438,0,11.588-2.942,21.376-16.037,34.06-17.655,12.829-1.636,32.5,3.255,42.929,7.836,8.479,3.722,14.871,14.259,19.643,19.639,3.429,3.867,4.921,9.448,8.985,12.639,5.19,4.073,14.561,8.277,22.144,11.8,8.271,3.848,18.522,7.244,27.476,11.283,8.885,4.01,18.876,9.106,26.222,12.954,6.065,3.176,13.142,9.627,17.863,10.133,4.188.448,9.683-3.251,10.447-7.1s-6.282-11.443-5.848-15.987,7.162-6.765,8.461-11.283c1.408-4.91,3.084-13.2,0-18.177s-14.158-11.073-18.493-11.7c-3.606-.523-3.987,7.047-7.521,7.939-5.235,1.323-19.174,2.438-23.925,0-4.54-2.331-3.827-10.063-4.6-14.625-.7-4.189,3.084-9.82,0-12.744-4.42-4.2-19.079-10.36-26.531-12.43-5.842-1.624-12.393.9-18.176,0-5.726-.9-10.846-4.224-16.509-5.433-6.933-1.48-18.3-1.707-25.072-3.448-5.509-1.416-10.39-4.637-15.564-7-5.381-2.456-11.222-4.99-16.719-7.732C13279.924,3423.188,13270.577,3415.335,13261.046,3413.159Z" transform="translate(-13209.027 -3411.461)"/>
            <path id="Tracé_93" data-name="Tracé 93" class="cls-1" d="M13852.174,3820.749c-9.635-5.562-50.652-26.852-49.326-14.16.865,8.223-15.3,14.639-18.2,14.16-8.748-1.445,6.357,23.712,5.227,31.782-.932,6.626,24.246-10.072,34.922-12.941,9.506-2.555,19.391-5.291,29.16-4.285,10.625,1.1,27.07,7.457,34.629,10.862,4.318,1.95,7,6.568,10.713,9.581,4.623,3.752,13,8.762,17.041,12.935,3.236,3.343,3.977,9.229,7.2,12.1s8.191,3.238,12.168,5.137c5.1,2.44,13.307,6.676,18.482,9.5,4.277,2.329,9.27,7.061,12.6,7.431,2.951.329,6.826-2.384,7.365-5.2s-2.113-8.125-4.127-11.722c-2.691-4.826-8.959-11.149-12.057-17.238-3.064-6.027-1.926-14.45-6.523-19.3s-13.74-7.451-21.119-9.794-15.473-2.638-23.154-4.285c-8.687-1.862-19.832-4.472-28.994-6.9C13869.445,3826.1,13860.053,3825.3,13852.174,3820.749Z" transform="translate(-13767.541 -3792.809)"/>
            <path id="Tracé_94" data-name="Tracé 94" class="cls-1" d="M14545.28,4272.314c-15.888-3.788-69.565-26.23-68.57-16.685.643,6.184-10.286,6.1-12.452,5.737-6.532-1.086.854,13.047,0,19.117-.689,4.981,24.43-6.808,33.959-8.169,7.679-1.1,15.622-1.464,23.239,0a161.1,161.1,0,0,1,31.924,10.585c6.035,2.9,10.825,8.368,15.978,12.426,5,3.94,11.342,8.219,14.936,11.918,2.81,2.9,3.739,8.12,6.6,10.276s7.01,1.882,10.548,2.661c4.227.931,13.772,5.571,14.8,2.926s-6.153-13.622-8.615-18.788c-1.967-4.119-3.208-8.811-6.187-12.2a40.532,40.532,0,0,0-12.609-9.215c-4.9-2.292-11.175-3.172-16.808-4.545C14564.767,4276.591,14554.176,4274.435,14545.28,4272.314Z" transform="translate(-14430.133 -4232.178)"/>
          </g>
        </g>
        <ellipse id="Ellipse_35" data-name="Ellipse 35" class="cls-2" cx="9.141" rx="9.141" transform="translate(70.361 270.23)"/>
      </g>
    </g>
    <ellipse id="Ellipse_34" data-name="Ellipse 34" class="cls-3" cx="9.473" cy="9.473" rx="9.473" ry="9.473" transform="translate(1332.55 598.255)"/>
    <ellipse id="Ellipse_36" data-name="Ellipse 36" class="cls-4" cx="2.938" cy="2.938" rx="2.938" ry="2.938" transform="translate(1339.086 604.79)"/>
  </g>
</svg>
