<?xml version="1.0" encoding="UTF-8" standalone="no"?>
<!DOCTYPE svg PUBLIC "-//W3C//DTD SVG 1.1//EN" "http://www.w3.org/Graphics/SVG/1.1/DTD/svg11.dtd">
<svg width="100%" height="100%" viewBox="0 0 613 452" version="1.1" xmlns="http://www.w3.org/2000/svg" xmlns:xlink="http://www.w3.org/1999/xlink" xml:space="preserve" xmlns:serif="http://www.serif.com/" style="fill-rule:evenodd;clip-rule:evenodd;stroke-linecap:round;stroke-linejoin:round;stroke-miterlimit:1.5;">
    <g id="Groupe_452" transform="matrix(1,0,0,1,-1037.4,-382.752)">
        <g id="cartevide" transform="matrix(1,0,0,1,1038.03,383.528)">
            <g id="Groupe_231">
                <g id="Tracé_74" transform="matrix(1,0,0,1,-431.121,-2900.06)">
                    <path d="M578.942,3015.99C572.509,3008.59 566.618,3017.4 560.702,3021.59C550.511,3028.78 526.727,3039.31 515.602,3050.1C508.402,3057.07 490.781,3053.6 485.816,3055.69C483.011,3056.88 488.158,3063.35 485.816,3064.88C483.474,3066.41 475.301,3061.79 471.762,3064.88C468.196,3068 468.511,3077.85 464.421,3083.57C460.331,3089.29 450.444,3092.79 447.221,3099.2C441.907,3109.78 428.43,3140.93 431.594,3148.62C434.758,3156.31 466.91,3139.58 467.777,3145.98C468.723,3152.96 454.83,3155.39 467.777,3167.33C472.062,3171.28 498.296,3163.98 495.046,3175.13C493.998,3178.72 486.963,3175.98 481.936,3193.99C466.936,3247.75 441.049,3231.85 440.824,3244.4C440.695,3251.59 452.083,3258.62 455.824,3264.95C460.903,3273.53 458.85,3278.36 463.476,3279.35C476.945,3282.24 487.034,3299.5 490.849,3308.39C492.533,3312.32 492.807,3319.16 497.771,3319.16C502.735,3319.16 507.437,3305.28 515.6,3303.96C523.763,3302.64 539.023,3310.45 543.708,3313.15C545.708,3314.3 542.093,3318.46 543.708,3320.11C545.369,3321.82 551.801,3320.51 553.672,3323.39C555.839,3326.71 551.395,3338.39 556.713,3341.02C562.656,3343.96 579.033,3344.54 589.33,3341.02C600.01,3337.38 610.086,3320.9 620.794,3319.16C633.17,3317.16 647.278,3327.62 663.584,3328.99C682.078,3330.53 708.212,3337.35 720.533,3333.63C743.706,3326.64 755.18,3351.68 760.282,3349.79C774.801,3344.42 798.318,3328 811.567,3319.16C818.762,3314.36 813.752,3307.26 816.496,3301.64C819.24,3296.01 813.984,3284.53 807.477,3282.31C797.968,3279.07 796.028,3280.41 783.984,3279.35C776.243,3278.68 767.71,3271.36 761.54,3273.02C755.37,3274.67 754.006,3287.96 746.962,3289.28C739.918,3290.6 731.943,3279.92 723.469,3279.35C714.574,3278.76 694.513,3271.64 688.02,3262.03C685.153,3257.79 685.182,3245.7 690.432,3246.83C697.711,3248.4 715.092,3247.14 723.469,3238.8C729.204,3233.09 738.006,3229.77 742.856,3223.28C748.712,3215.45 747.021,3184.91 758.604,3190.86C773.098,3198.31 809.313,3251.56 829.816,3266.26C842.001,3274.99 864.146,3272.14 874.39,3271.43C880.806,3270.99 889.59,3268.29 891.275,3262.03C893.058,3255.43 880.912,3241.21 885.088,3231.84C890,3220.8 913.388,3210.14 920.747,3195.83C928.106,3181.52 929.038,3154.82 929.247,3145.98C929.368,3140.73 942.462,3141.09 944.979,3137.32C947.496,3133.56 946.797,3124 944.979,3120.01C943.286,3116.28 936.587,3117.73 934.072,3114.51C929.527,3108.71 925.789,3084.26 917.291,3085.16C911.235,3085.8 917.452,3102.77 912.152,3109.55C906.208,3117.15 896.437,3129.34 885.093,3130.78C871.371,3132.52 827.493,3127.19 829.822,3120.01C832.151,3112.83 882.434,3098.96 899.042,3087.69C912.531,3078.54 907.834,3034.43 919.913,3030.25C931.992,3026.06 967.268,3044.71 978.855,3052.32C986.643,3057.43 1001.68,3058.37 1006.75,3052.32C1011.83,3046.26 1001.38,3023.55 1009.27,3015.99C1014.74,3010.76 1031.72,3021.96 1036.02,3019.48C1040.32,3017 1047.16,3003.56 1036.02,2998.78C1030.93,2996.6 1019.13,2999.58 1009.27,2995.5C999.221,2991.35 986.943,2968.24 975.711,2973.86C971.805,2975.81 972.337,2982.13 968.998,2983.57C965.882,2984.92 961.398,2985.54 958.825,2983.57C956.252,2981.6 962.588,2960.65 958.825,2958.58C953.161,2955.47 938.325,2948.44 929.249,2944.92C918.828,2940.88 904.329,2951.42 898.1,2944.92C892.341,2938.91 882.63,2936.32 874.4,2937.32C862.083,2938.82 844.072,2928.18 833.812,2922.32C825.403,2917.52 819.731,2905.42 812.836,2902.15C799.911,2896.03 754.257,2904.63 748.65,2911.76C745.434,2915.85 763.508,2922.34 761.55,2925.8C759.592,2929.27 740.826,2929.47 736.904,2932.56C732.504,2936.04 733.504,2951.88 742.866,2953.89C749.666,2955.36 745.306,2967.41 744.015,2971.74C743.124,2974.73 735.956,2981.02 738.568,2982.69C752.754,2991.78 742.911,2993.59 749.699,2995.5C757.845,2997.79 773.345,2996.19 783.994,2993.81C798.502,2990.57 821.194,2970.53 838.426,2971.74C855.658,2972.95 881.518,2993.14 879.256,3006.91C880.604,3008.84 876.438,3022.02 861.241,3028.66C857.596,3030.25 853.301,3035.21 848.226,3032.81C844.345,3030.98 843.789,3040.86 843.28,3045.98C842.38,3055.03 830.805,3057.27 826.861,3064.79C822.997,3072.15 815.953,3075.15 812.835,3077.45C807.716,3081.22 805.535,3075.48 796.143,3068.26C791.643,3064.8 781.977,3056.91 777.701,3055.69C765.175,3052.13 744.175,3078.59 732.501,3085.16C724.719,3089.53 715.183,3090.29 707.645,3095.08C701.327,3099.1 681.99,3085.68 671.987,3068.26C665.853,3057.58 649.766,3066.25 642.621,3045.98C640.536,3040.06 630.397,3040.82 625.112,3039.36C612.828,3035.97 603.176,3034.59 595.636,3030.24C590.156,3027.09 582.582,3020.16 578.952,3015.99L578.942,3015.99Z" style="stroke:white;stroke-width:1.25px;"/>
                </g>
                <g id="Groupe_225" transform="matrix(1,0,0,1,20.426,129.572)">
                    <g id="Tracé_75" transform="matrix(1,0,0,1,-1245.81,-8068.1)">
                        <path d="M1356.65,8072.27C1334.92,8088.57 1246.27,8129 1245.81,8163.44C1245.63,8177.32 1281.45,8167.4 1286.45,8172.53C1291.45,8177.67 1272.42,8188.76 1275.79,8194.26C1279.17,8199.76 1301.76,8198.72 1293.87,8214.8C1282.76,8237.43 1297.52,8278.85 1260.75,8280.45C1239.8,8281.36 1287.63,8324.79 1299.72,8323.19C1329.07,8319.3 1341.55,8356.12 1361.35,8363.6C1365.82,8365.29 1382.2,8366.58 1386.99,8363.6C1405.52,8352.09 1411.46,8336.29 1439.49,8348.62C1477.28,8365.24 1487.19,8358.64 1500.39,8361.41C1511.8,8363.81 1531.66,8346.25 1527.97,8339.89C1524.28,8333.53 1481.29,8327.06 1470.93,8315.72C1461.01,8304.86 1462.14,8280.22 1465.83,8271.88C1469.53,8263.55 1483.57,8271.53 1493.08,8265.72C1502.62,8259.89 1513.66,8254.19 1519.93,8244.72C1526.23,8235.22 1530.86,8221.05 1530.86,8208.68C1530.86,8194.52 1524.56,8169.52 1516.59,8158.01C1509.33,8147.53 1491.82,8148.88 1483.05,8139.63C1470.33,8126.21 1459.58,8125.3 1448.05,8118C1436.59,8110.75 1427.23,8098.34 1413.89,8095.87C1382.34,8090.02 1377.61,8056.54 1356.65,8072.27L1356.65,8072.27Z" style="stroke:white;stroke-width:1.25px;"/>
                    </g>
                    <g id="Tracé_76" transform="matrix(1,0,0,1,-2062.32,-8501.56)">
                        <path d="M2170.94,8518C2157.51,8535.05 2083.16,8561.57 2083.32,8587C2083.37,8594.82 2121.47,8588.04 2121.23,8603.12C2121.13,8609.69 2115.18,8622.34 2117.79,8627.38C2120.41,8632.42 2123.89,8633.08 2117.79,8647.83C2109.2,8668.59 2112.79,8702.52 2121.23,8706.88C2127.89,8710.31 2156.22,8723.11 2163.31,8735.65C2170.32,8748.04 2282.17,8757.47 2268.33,8739.31C2257.4,8724.97 2244.3,8688.05 2253.91,8680.38C2259.77,8675.72 2269.75,8672.06 2274.6,8663.38C2279.47,8654.66 2268.71,8643.48 2268.71,8632.14C2268.71,8619.16 2295.62,8606.1 2289.46,8595.55C2283.85,8585.93 2284.9,8585.76 2278.11,8577.28C2268.27,8564.97 2259.96,8564.14 2251.04,8557.45C2242.18,8550.79 2234.94,8539.42 2224.62,8537.15C2200.21,8531.78 2184.77,8500.43 2170.94,8518Z" style="stroke:white;stroke-width:1.25px;"/>
                    </g>
                    <g id="Tracé_77" transform="matrix(1,0,0,1,-3471.9,-10038.9)">
                        <path d="M3587.34,10093.2C3577.57,10104.9 3529.04,10104.4 3529.15,10121.8C3529.19,10127.2 3555.12,10126.2 3554.94,10136.6C3554.87,10141.1 3549.28,10155.3 3551.18,10158.8C3553.08,10162.3 3563.03,10168.1 3566.31,10178.7C3569.7,10189.7 3652.79,10210.9 3654.55,10206.5C3656.62,10201.3 3659.95,10199.5 3665.31,10195.8C3670.66,10192.2 3659.59,10181.7 3659.59,10174C3659.59,10165.1 3682.19,10153.2 3677.71,10145.9C3673.62,10139.3 3670.24,10139.6 3665.31,10133.8C3658.15,10125.4 3652.1,10124.8 3645.61,10120.2C3639.16,10115.7 3633.9,10107.9 3626.39,10106.3C3608.64,10102.6 3597.4,10081.2 3587.34,10093.2Z" style="stroke:white;stroke-width:1.25px;"/>
                    </g>
                    <g id="Tracé_78" transform="matrix(1,0,0,1,-15630.1,-17696.9)">
                        <path d="M16003.7,17977.1C15998.4,17980.8 15998.2,17945.4 16007.3,17944.6C16018.4,17943.7 16019.6,17947.5 16019.6,17952.7C16021.1,17972.9 16012.2,17971.2 16003.7,17977.1Z" style="stroke:white;stroke-width:1.25px;"/>
                    </g>
                    <g id="Tracé_79" transform="matrix(1,0,0,1,-10863.8,-11872.8)">
                        <path d="M11128.4,11972.4C11130.4,11973.5 11140.7,12000.4 11138.6,12013.5C11136.5,12026.5 11118,12050.4 11115.8,12050.7C11102,12052.5 11123.2,12026.1 11125.2,12013.5C11127.3,12000.4 11110,11962 11128.4,11972.4Z" style="stroke:white;stroke-width:1.25px;"/>
                    </g>
                    <g id="Tracé_80" transform="matrix(1,0,0,1,-11152.7,-12435.1)">
                        <path d="M11418.8,12548.6C11419.8,12549.4 11425.5,12568.5 11423.9,12577.7C11422.3,12586.9 11410.6,12603.6 11409.5,12603.8C11402.6,12605.1 11415.7,12586.8 11417.2,12577.7C11418.8,12568.5 11409.6,12541.2 11418.8,12548.6Z" style="stroke:white;stroke-width:1.25px;"/>
                    </g>
                    <g id="Tracé_81" transform="matrix(1,0,0,1,-9741.99,-12421.7)">
                        <path d="M9976.82,12534C9971.53,12531.6 9961.76,12542 9960.63,12548.1C9959.5,12554.1 9964.74,12568 9970.04,12570.3C9975.33,12572.7 9991.26,12568.3 9992.39,12562.3C9993.52,12556.2 9982.12,12536.4 9976.82,12534Z" style="stroke:white;stroke-width:1.25px;"/>
                    </g>
                    <g id="Tracé_82" transform="matrix(1,0,0,1,-8767.36,-14541.3)">
                        <path d="M8989.87,14707.8C8982.09,14707.3 8966.13,14720.7 8962.18,14726.2C8959.24,14730.3 8961.15,14740.4 8966.15,14740.7C8973.94,14741.2 9004.93,14734.6 9008.89,14729.1C9012.84,14723.6 8997.65,14708.3 8989.87,14707.8Z" style="stroke:white;stroke-width:1.25px;"/>
                    </g>
                </g>
                <g id="Tracé_83" transform="matrix(1,0,0,1,-8867.65,-7645.55)">
                    <path d="M9125.32,7799.79C9125.33,7797.44 9121.73,7796.42 9121.34,7794.15C9120.93,7791.68 9124.28,7790.43 9123.43,7787.88C9122.49,7785.05 9116.93,7781.36 9115.7,7777.12C9111.95,7764.06 9098.87,7766.2 9095.75,7772.94C9095.03,7774.48 9098.83,7775.43 9098.68,7777.12C9098.09,7783.47 9096.65,7782.52 9094.39,7784.02C9092.06,7785.57 9085.17,7783.12 9084.67,7786.42C9083.23,7796.02 9104,7800.82 9108.5,7802.82C9110.14,7803.55 9109.86,7798.12 9111.63,7798.43C9115.48,7799.12 9125.29,7803.08 9125.32,7799.79Z" style="stroke:white;stroke-width:1.25px;"/>
                </g>
                <g id="Groupe_226" transform="matrix(1,0,0,1,302.496,177.47)">
                    <g id="Tracé_84" transform="matrix(1,0,0,1,-12496.3,-9978.54)">
                        <path d="M12583.9,10032.2C12603.4,10047.4 12528.6,10104.5 12520.4,10075.7C12519.1,10071.2 12494.6,10012.8 12496.4,10006.3C12502.7,9983.57 12534.7,9975.26 12541.6,9979.68C12560.9,9991.94 12571.6,10022.7 12583.9,10032.2Z" style="stroke:white;stroke-width:1.25px;"/>
                    </g>
                    <g id="Tracé_85" transform="matrix(1,0,0,1,-13153.6,-10614.6)">
                        <path d="M13224.2,10662.6C13242.3,10670.8 13201.6,10715.6 13192.2,10697.4C13190.5,10694.2 13169.1,10657.7 13170.6,10652.7C13175.7,10635.1 13195,10628.4 13200.6,10631.8C13216.1,10641.3 13212.8,10657.5 13224.2,10662.6Z" style="stroke:white;stroke-width:1.25px;"/>
                    </g>
                </g>
                <g id="Tracé_86" transform="matrix(1,0,0,1,-14173.2,-12046)">
                    <path d="M14657.1,12286.7C14669.6,12297.9 14643.9,12344.3 14620,12358.8C14609.6,12365.2 14621,12391.3 14613.9,12399.7C14585.4,12433.2 14514.8,12341.9 14528.3,12337.9C14544.5,12333.1 14573.6,12295.2 14574.9,12286.7C14576.3,12277.1 14577.9,12282.2 14597.1,12286.7C14622.1,12292.6 14650.6,12280.8 14657.1,12286.7Z" style="stroke:white;stroke-width:1.25px;"/>
                </g>
                <g id="Groupe_228" transform="matrix(1,0,0,1,384.86,90.519)">
                    <g id="Tracé_87" transform="matrix(1,0,0,1,-15781.4,-6510.43)">
                        <path d="M15854.7,6511.67C15847.4,6502.72 15939.5,6545.45 15897.8,6539.07C15894.6,6538.65 15891.3,6538.65 15888,6539.07C15883.7,6539.79 15880.5,6541.61 15877.8,6542.79C15870.1,6546.15 15870.8,6589.77 15860.8,6600.74C15850.1,6612.38 15811.9,6620.38 15793.7,6624.38C15790.9,6625.01 15788.1,6624.33 15785.9,6622.54C15781.2,6618.79 15779.8,6611.08 15783.6,6609.27C15791.6,6605.54 15808.4,6568.27 15819.9,6563.44C15838.1,6555.8 15865.2,6524.41 15854.7,6511.67Z" style="stroke:white;stroke-width:1.25px;"/>
                    </g>
                    <g id="Tracé_88" transform="matrix(1,0,0,1,-16245.4,-7988.71)">
                        <path d="M16316.6,8027.51C16321.7,8024.24 16331.6,8031.89 16329.6,8036.61C16327,8042.84 16328.9,8068.85 16320.7,8077.67C16312,8087.04 16280.8,8093.48 16266,8096.7C16261.9,8097.6 16259.3,8096.2 16258.1,8094.07C16256.9,8091.84 16257.1,8089.1 16258.6,8087.04C16263.5,8080.31 16281.6,8055.91 16287.4,8047.66C16293.1,8039.48 16306.5,8033.96 16316.6,8027.51Z" style="stroke:white;stroke-width:1.25px;"/>
                    </g>
                    <g id="Tracé_89" transform="matrix(1,0,0,1,-16692.2,-8348.21)">
                        <path d="M16761,8396.06C16764.9,8393.65 16772.5,8399.28 16771,8402.76C16769,8407.36 16770.4,8426.51 16764.1,8433.01C16757.5,8439.91 16733.6,8444.66 16722.3,8447.03C16716,8448.36 16714.4,8442.87 16716.6,8439.92C16720.4,8434.96 16734.2,8416.99 16738.6,8410.9C16743.1,8404.87 16753.3,8400.81 16761,8396.06Z" style="stroke:white;stroke-width:1.25px;"/>
                    </g>
                </g>
                <g id="Groupe_229" transform="matrix(1,0,0,1,323.668,380.617)">
                    <g id="Tracé_90" transform="matrix(1,0,0,1,-13340.7,-18081.1)">
                        <path d="M13349.5,18081.3C13341,18077.7 13336,18134.8 13347.2,18139.9C13355.6,18143.6 13386.8,18123.7 13393.6,18115C13397.2,18110.5 13398,18091.9 13393.6,18088.3C13386.5,18082.5 13365.3,18087.9 13349.5,18081.3Z" style="stroke:white;stroke-width:1.25px;"/>
                    </g>
                    <g id="Tracé_91" transform="matrix(1,0,0,1,-13631.8,-18556.7)">
                        <path d="M13646.4,18570.1C13640.1,18567.5 13635.4,18603.7 13643.8,18607.4C13650,18610.1 13673.2,18595.7 13678.3,18589.4C13680.9,18586.1 13681.6,18572.7 13678.3,18570.1C13673,18565.9 13658.2,18574.9 13646.4,18570.1Z" style="stroke:white;stroke-width:1.25px;"/>
                    </g>
                </g>
                <g id="Groupe_230" transform="matrix(1,0,0,1,320.366,12.822)">
                    <g id="Tracé_92" transform="matrix(1,0,0,1,-13209,-3411.46)">
                        <path d="M13261,3413.16C13251.1,3410.89 13233.2,3410.89 13227.6,3413.16C13223.4,3414.86 13230.3,3423.07 13227.6,3426.74C13224.6,3430.88 13205.4,3432.36 13209.6,3438.02C13217.6,3448.59 13216.8,3468 13212.3,3477.82C13208.5,3486.18 13236.3,3480.73 13247.8,3477.82C13259.4,3474.88 13269.1,3461.78 13281.8,3460.17C13294.7,3458.53 13314.3,3463.42 13324.8,3468C13333.2,3471.72 13339.6,3482.26 13344.4,3487.64C13347.8,3491.51 13349.3,3497.09 13353.4,3500.28C13358.6,3504.35 13367.9,3508.56 13375.5,3512.08C13383.8,3515.93 13394,3519.32 13403,3523.36C13411.9,3527.37 13421.9,3532.47 13429.2,3536.32C13435.3,3539.49 13442.4,3545.94 13447.1,3546.45C13451.3,3546.9 13456.8,3543.2 13457.5,3539.35C13458.3,3535.5 13451.3,3527.91 13451.7,3523.36C13452.1,3518.82 13458.8,3516.6 13460.1,3512.08C13461.6,3507.17 13463.2,3498.88 13460.1,3493.9C13457.1,3488.93 13446,3482.83 13441.7,3482.2C13438,3481.68 13437.7,3489.25 13434.1,3490.14C13428.9,3491.47 13415,3492.58 13410.2,3490.14C13405.7,3487.81 13406.4,3480.08 13405.6,3475.52C13404.9,3471.33 13408.7,3465.7 13405.6,3462.77C13401.2,3458.57 13386.5,3452.41 13379.1,3450.34C13373.2,3448.72 13366.7,3451.24 13360.9,3450.34C13355.2,3449.44 13350.1,3446.12 13344.4,3444.91C13337.5,3443.43 13326.1,3443.2 13319.3,3441.46C13313.8,3440.05 13308.9,3436.83 13303.8,3434.46C13298.4,3432.01 13292.5,3429.47 13287,3426.73C13279.9,3423.19 13270.6,3415.34 13261,3413.16Z" style="stroke:white;stroke-width:1.25px;"/>
                    </g>
                    <g id="Tracé_93" transform="matrix(1,0,0,1,-13767.5,-3792.81)">
                        <path d="M13852.2,3820.75C13842.5,3815.19 13801.5,3793.9 13802.8,3806.59C13803.7,3814.81 13787.5,3821.23 13784.6,3820.75C13775.9,3819.3 13791,3844.46 13789.9,3852.53C13788.9,3859.16 13814.1,3842.46 13824.8,3839.59C13834.3,3837.03 13844.2,3834.3 13854,3835.31C13864.6,3836.41 13881,3842.76 13888.6,3846.17C13892.9,3848.12 13895.6,3852.74 13899.3,3855.75C13903.9,3859.5 13912.3,3864.51 13916.3,3868.68C13919.6,3872.03 13920.3,3877.91 13923.5,3880.78C13926.8,3883.65 13931.7,3884.02 13935.7,3885.92C13940.8,3888.36 13949,3892.6 13954.2,3895.42C13958.5,3897.75 13963.5,3902.48 13966.8,3902.85C13969.7,3903.18 13973.6,3900.47 13974.2,3897.65C13974.7,3894.84 13972,3889.53 13970,3885.93C13967.3,3881.1 13961.1,3874.78 13958,3868.69C13954.9,3862.66 13956,3854.24 13951.4,3849.39C13946.9,3844.54 13937.7,3841.94 13930.3,3839.6C13923,3837.25 13914.9,3836.96 13907.2,3835.31C13898.5,3833.45 13887.3,3830.84 13878.2,3828.41C13869.4,3826.1 13860.1,3825.3 13852.2,3820.75Z" style="stroke:white;stroke-width:1.25px;"/>
                    </g>
                    <g id="Tracé_94" transform="matrix(1,0,0,1,-14430.1,-4232.18)">
                        <path d="M14545.3,4272.31C14529.4,4268.53 14475.7,4246.08 14476.7,4255.63C14477.4,4261.81 14466.4,4261.73 14464.3,4261.37C14457.7,4260.28 14465.1,4274.41 14464.3,4280.48C14463.6,4285.46 14488.7,4273.68 14498.2,4272.31C14505.9,4271.21 14513.8,4270.85 14521.5,4272.31C14532.4,4274.72 14543.1,4278.27 14553.4,4282.9C14559.4,4285.8 14564.2,4291.27 14569.4,4295.32C14574.4,4299.27 14580.7,4303.54 14584.3,4307.24C14587.1,4310.14 14588,4315.36 14590.9,4317.52C14593.8,4319.68 14597.9,4319.4 14601.4,4320.18C14605.7,4321.11 14615.2,4325.75 14616.2,4323.11C14617.3,4320.46 14610.1,4309.48 14607.6,4304.32C14605.7,4300.2 14604.4,4295.51 14601.4,4292.12C14597.9,4288.26 14593.6,4285.13 14588.8,4282.9C14583.9,4280.61 14577.7,4279.73 14572,4278.36C14564.8,4276.59 14554.2,4274.44 14545.3,4272.31Z" style="stroke:white;stroke-width:1.25px;"/>
                    </g>
                </g>
            </g>
            <g id="Ellipse_35" transform="matrix(1,0,0,1,70.361,270.23)">
                <ellipse cx="9.141" cy="0" rx="9.141" ry="0"/>
            </g>
        </g>
        <g transform="matrix(1,0,0,1,-82.9389,-6.07343)">
            <g id="Ellipse_34" transform="matrix(1,0,0,1,1471.55,431.255)">
                <circle cx="9.473" cy="9.473" r="9.473" style="fill:rgb(242,28,28);"/>
            </g>
            <g id="Ellipse_36" transform="matrix(1,0,0,1,1478.09,437.79)">
                <circle cx="2.938" cy="2.938" r="2.938" style="fill:white;"/>
            </g>
        </g>
    </g>
</svg>
