<svg xmlns="http://www.w3.org/2000/svg" viewBox="0 0 239.371 176.595">
  <defs>
    <style>
      .cls-1, .cls-2 {
        fill: #5e5e5e;
      }

      .cls-1 {
        stroke: #fff;
        stroke-linecap: round;
        stroke-linejoin: round;
        stroke-miterlimit: 1.5;
        stroke-width: 1.25px;
        fill-rule: evenodd;
      }

      .cls-3 {
        fill: #f21c1c;
      }
    </style>
  </defs>
  <g id="Groupe_233" data-name="Groupe 233" transform="translate(-1652.192 -168.348)">
    <g id="cartevide" transform="translate(1652.812 169.029)">
      <g id="Groupe_231" data-name="Groupe 231" transform="translate(0 0)">
        <path id="Tracé_74" data-name="Tracé 74" class="cls-1" d="M488.733,2945.242c-2.507-2.881-4.8.553-7.109,2.181-3.972,2.806-13.241,6.91-17.577,11.113-2.805,2.719-9.674,1.365-11.609,2.181-1.093.461.913,2.984,0,3.58s-4.1-1.2-5.477,0-1.267,5.056-2.861,7.285-5.448,3.591-6.7,6.092c-2.071,4.122-7.324,16.263-6.091,19.261s13.764-3.523,14.1-1.029c.369,2.722-5.046,3.668,0,8.322,1.67,1.54,11.895-1.308,10.628,3.037-.408,1.4-3.15.331-5.109,7.351-5.847,20.952-15.935,14.755-16.023,19.648-.05,2.8,4.388,5.542,5.847,8.008,1.979,3.346,1.179,5.228,2.982,5.615,5.249,1.126,9.182,7.852,10.669,11.319.656,1.53.763,4.2,2.7,4.2s3.767-5.412,6.949-5.926,9.129,2.531,10.955,3.581c.781.449-.629,2.07,0,2.716.647.665,3.154.158,3.883,1.277.845,1.3-.888,5.847,1.185,6.873,2.316,1.146,8.7,1.37,12.712,0,4.163-1.419,8.09-7.843,12.263-8.519,4.823-.782,10.322,3.3,16.677,3.827,7.208.6,17.393,3.259,22.2,1.811,9.032-2.724,13.5,7.032,15.492,6.3,5.659-2.091,14.824-8.492,19.988-11.935,2.8-1.87.852-4.637,1.921-6.832s-.979-6.668-3.515-7.532c-3.706-1.262-4.462-.741-9.156-1.152-3.017-.265-6.343-3.114-8.748-2.469s-2.936,5.824-5.682,6.338-5.854-3.648-9.156-3.869c-3.467-.232-11.286-3-13.816-6.75-1.117-1.654-1.106-6.369.94-5.927,2.837.612,9.611.122,12.876-3.128,2.235-2.225,5.666-3.522,7.556-6.05,2.282-3.052,1.623-14.954,6.138-12.635,5.649,2.9,19.763,23.658,27.755,29.386,4.749,3.4,13.38,2.291,17.372,2.017,2.5-.172,5.923-1.228,6.581-3.663.695-2.573-4.039-8.115-2.412-11.771,1.914-4.3,11.03-8.458,13.9-14.035s3.231-15.982,3.311-19.426c.047-2.046,5.15-1.906,6.131-3.375s.709-5.192,0-6.75c-.66-1.45-3.271-.887-4.251-2.14-1.771-2.263-3.228-11.791-6.54-11.441-2.36.25.063,6.865-2,9.507-2.316,2.963-6.125,7.711-10.546,8.273-5.348.679-22.448-1.4-21.542-4.2s20.505-8.2,26.978-12.594c5.257-3.566,3.427-20.757,8.134-22.389s18.456,5.635,22.972,8.6c3.035,1.994,8.9,2.36,10.873,0s-2.1-11.214.981-14.157c2.13-2.038,8.747,2.325,10.423,1.358s4.343-6.206,0-8.067c-1.981-.85-6.583.311-10.423-1.277-3.917-1.618-8.7-10.627-13.08-8.437-1.522.761-1.315,3.223-2.616,3.786-1.214.525-2.963.769-3.965,0s1.467-8.933,0-9.739c-2.207-1.215-7.988-3.952-11.527-5.325-4.062-1.574-9.713,2.533-12.14,0a11.376,11.376,0,0,0-9.238-2.963c-4.8.585-11.82-3.56-15.819-5.844-3.277-1.872-5.488-6.587-8.175-7.861-5.037-2.386-22.831.967-25.016,3.745-1.254,1.594,5.791,4.123,5.028,5.474s-8.077,1.427-9.606,2.634c-1.716,1.355-1.324,7.53,2.324,8.314,2.652.57.951,5.268.448,6.955-.347,1.165-3.141,3.617-2.123,4.27,5.529,3.543,1.693,4.248,4.338,4.991,3.175.892,9.216.268,13.366-.658,5.654-1.262,14.5-9.075,21.215-8.6s16.795,8.341,15.913,13.706c.526.752-1.1,5.891-7.021,8.478-1.42.62-3.094,2.552-5.072,1.619-1.513-.713-1.729,3.135-1.928,5.13-.351,3.527-4.862,4.4-6.4,7.332-1.506,2.871-4.251,4.039-5.466,4.934-2,1.468-2.845-.766-6.506-3.581-1.753-1.348-5.521-4.424-7.188-4.9-4.882-1.387-13.067,8.924-17.618,11.483-3.033,1.706-6.75,2-9.688,3.869-2.462,1.564-10-3.664-13.9-10.454-2.391-4.164-8.66-.783-11.445-8.684-.813-2.305-4.764-2.009-6.824-2.578-4.788-1.322-8.549-1.861-11.488-3.553a31.845,31.845,0,0,1-6.5-5.556Z" transform="translate(-431.121 -2900.062)"/>
        <g id="Groupe_225" data-name="Groupe 225" transform="translate(7.961 50.5)">
          <path id="Tracé_75" data-name="Tracé 75" class="cls-1" d="M1289.011,8069.725c-8.47,6.353-43.021,22.11-43.2,35.535-.072,5.409,13.89,1.542,15.838,3.544s-5.469,6.325-4.153,8.469,10.12,1.735,7.044,8c-4.328,8.821,1.423,24.962-12.907,25.587-8.166.354,10.477,17.28,15.187,16.656,11.441-1.515,16.3,12.836,24.022,15.752,1.741.657,8.126,1.159,9.993,0,7.221-4.485,9.537-10.644,20.462-5.839,14.729,6.476,18.59,3.9,23.736,4.983,4.448.935,12.188-5.908,10.749-8.386s-18.194-5-22.231-9.419c-3.868-4.234-3.427-13.839-1.989-17.087s6.913-.136,10.62-2.4,8.019-4.491,10.464-8.183a27.37,27.37,0,0,0,4.258-14.047c0-5.518-2.456-15.262-5.561-19.748-2.828-4.085-9.652-3.559-13.069-7.165-4.958-5.23-9.147-5.586-13.64-8.429-4.469-2.827-8.115-7.661-13.314-8.624-12.3-2.282-14.141-15.329-22.312-9.2Z" transform="translate(-1245.812 -8068.103)"/>
          <path id="Tracé_76" data-name="Tracé 76" class="cls-1" d="M2117.467,8514.771c-5.231,6.645-34.211,16.98-34.148,26.891.019,3.047,14.869.4,14.775,6.282-.041,2.563-2.357,7.491-1.339,9.456s2.379,2.222,0,7.971c-3.348,8.091-1.949,21.316,1.339,23.012,2.594,1.339,13.637,6.329,16.4,11.215,2.731,4.829,46.326,8.5,40.931,1.426-4.259-5.59-9.367-19.978-5.619-22.967,2.281-1.817,6.17-3.242,8.062-6.627s-2.294-7.754-2.294-12.176c0-5.061,10.487-10.147,8.085-14.26-2.188-3.748-1.778-3.815-4.422-7.12-3.834-4.8-7.075-5.124-10.55-7.729-3.457-2.594-6.277-7.026-10.3-7.912C2128.877,8520.141,2122.857,8507.924,2117.467,8514.771Z" transform="translate(-2075.135 -8508.364)"/>
          <path id="Tracé_77" data-name="Tracé 77" class="cls-1" d="M3551.829,10091c-3.805,4.55-22.724,4.359-22.677,11.146.015,2.085,10.12,1.717,10.052,5.744-.03,1.754-2.208,7.324-1.467,8.671s4.621,3.605,5.9,7.755c1.321,4.288,33.7,12.559,34.389,10.832.809-2.04,2.107-2.738,4.194-4.163s-2.229-5.484-2.229-8.511c0-3.467,8.809-8.115,7.062-10.935-1.591-2.566-2.909-2.453-4.833-4.719-2.79-3.284-5.147-3.508-7.676-5.295s-4.566-4.811-7.492-5.418C3560.129,10094.674,3555.751,10086.307,3551.829,10091Z" transform="translate(-3506.839 -10069.832)"/>
          <path id="Tracé_78" data-name="Tracé 78" class="cls-1" d="M16001.438,17957.213c-2.059,1.432-2.135-12.369,1.426-12.664,4.324-.355,4.77,1.109,4.764,3.135C16008.238,17955.561,16004.766,17954.9,16001.438,17957.213Z" transform="translate(-15855.841 -17847.99)"/>
          <path id="Tracé_79" data-name="Tracé 79" class="cls-1" d="M11117.9,11971.345c.756.427,4.771,10.909,3.949,15.992s-8.014,14.39-8.875,14.5c-5.368.7,2.869-9.581,3.664-14.5C11117.458,11982.254,11110.706,11967.269,11117.9,11971.345Z" transform="translate(-11014.767 -11932.516)"/>
          <path id="Tracé_80" data-name="Tracé 80" class="cls-1" d="M11411.91,12547.846c.378.3,2.581,7.738,1.976,11.322s-5.188,10.105-5.619,10.186c-2.684.5,2.407-6.607,3.013-10.186S11408.314,12544.961,11411.91,12547.846Z" transform="translate(-11308.194 -12503.585)"/>
          <path id="Tracé_81" data-name="Tracé 81" class="cls-1" d="M9966.844,12533.8c-2.062-.922-5.87,3.12-6.311,5.482s1.6,7.757,3.666,8.68,8.271-.791,8.712-3.152S9968.907,12534.722,9966.844,12533.8Z" transform="translate(-9875.317 -12490.032)"/>
          <path id="Tracé_82" data-name="Tracé 82" class="cls-1" d="M8972.12,14707.787c-3.032-.187-9.253,5.031-10.793,7.168-1.145,1.587-.4,5.537,1.551,5.658,3.036.19,15.112-2.38,16.654-4.519S8975.155,14707.978,8972.12,14707.787Z" transform="translate(-8885.398 -14642.901)"/>
        </g>
        <path id="Tracé_83" data-name="Tracé 83" class="cls-1" d="M9100.469,7780.138c.006-.917-1.4-1.315-1.548-2.2-.162-.963,1.145-1.449.813-2.442-.366-1.106-2.536-2.54-3.012-4.195-1.461-5.088-6.56-4.256-7.776-1.628-.279.6,1.2.969,1.14,1.628-.227,2.477-.791,2.1-1.669,2.689-.91.6-3.595-.35-3.788.935-.562,3.743,7.534,5.613,9.285,6.393.64.285.53-1.833,1.221-1.71C9096.634,7779.876,9100.46,7781.419,9100.469,7780.138Z" transform="translate(-9000.043 -7720.023)"/>
        <g id="Groupe_226" data-name="Groupe 226" transform="translate(117.896 69.168)">
          <path id="Tracé_84" data-name="Tracé 84" class="cls-1" d="M12530.419,9999.458c7.623,5.907-21.549,28.162-24.745,16.944-.5-1.756-10.062-24.522-9.361-27.028,2.481-8.878,14.936-12.115,17.641-10.393C12521.459,9983.762,12525.618,9995.734,12530.419,9999.458Z" transform="translate(-12496.275 -9978.536)"/>
          <path id="Tracé_85" data-name="Tracé 85" class="cls-1" d="M13191.413,10643.3c7.07,3.169-8.819,20.63-12.46,13.566-.653-1.266-9.006-15.5-8.441-17.437,2-6.852,9.523-9.473,11.7-8.144C13188.264,10634.979,13186.958,10641.307,13191.413,10643.3Z" transform="translate(-13163.896 -10624.581)"/>
        </g>
        <g id="Groupe_227" data-name="Groupe 227" transform="translate(137.735 91.669)">
          <path id="Tracé_86" data-name="Tracé 86" class="cls-1" d="M14577.444,12283.373c4.857,4.365-5.175,22.422-14.487,28.1-4.043,2.466.414,12.64-2.378,15.937-11.073,13.064-38.616-22.544-33.363-24.1,6.324-1.88,17.669-16.643,18.167-19.939.572-3.76,1.183-1.77,8.67,0C14563.813,12285.682,14574.892,12281.079,14577.444,12283.373Z" transform="translate(-14526.557 -12281.236)"/>
        </g>
        <g id="Groupe_228" data-name="Groupe 228" transform="translate(149.997 35.279)">
          <path id="Tracé_87" data-name="Tracé 87" class="cls-1" d="M15809.972,6510.913c-2.859-3.487,33.025,13.168,16.8,10.68a15.063,15.063,0,0,0-3.809,0,15.629,15.629,0,0,0-4,1.452c-3,1.306-2.709,18.31-6.627,22.583-4.162,4.538-19.066,7.655-26.16,9.214a3.505,3.505,0,0,1-3.029-.717c-1.822-1.463-2.393-4.467-.891-5.173,3.1-1.453,9.65-15.978,14.143-17.86C15803.5,6528.115,15814.046,6515.878,15809.972,6510.913Z" transform="translate(-15781.393 -6510.431)"/>
          <path id="Tracé_88" data-name="Tracé 88" class="cls-1" d="M16280.417,8027.031c1.992-1.277,5.824,1.7,5.063,3.544-1.01,2.431-.281,12.565-3.473,16-3.389,3.652-15.531,6.161-21.3,7.416-1.613.349-2.623-.2-3.09-1.024a2.593,2.593,0,0,1,.18-2.739c1.92-2.623,8.967-12.132,11.232-15.348C16271.272,8031.693,16276.5,8029.542,16280.417,8027.031Z" transform="translate(-16252.654 -8011.906)"/>
          <path id="Tracé_89" data-name="Tracé 89" class="cls-1" d="M16733.324,8395.7c1.529-.941,4.461,1.257,3.877,2.611-.771,1.792-.213,9.259-2.66,11.792-2.592,2.69-11.881,4.54-16.3,5.464-2.471.518-3.1-1.622-2.225-2.771,1.473-1.935,6.859-8.939,8.592-11.311C16726.33,8399.137,16730.326,8397.552,16733.324,8395.7Z" transform="translate(-16706.514 -8377.055)"/>
        </g>
        <g id="Groupe_229" data-name="Groupe 229" transform="translate(126.148 148.343)">
          <path id="Tracé_90" data-name="Tracé 90" class="cls-1" d="M13344.161,18081.166c-3.326-1.391-5.27,20.859-.9,22.842,3.242,1.467,15.426-6.3,18.078-9.691,1.386-1.771,1.713-9.021,0-10.422C13358.588,18081.639,13350.311,18083.734,13344.161,18081.166Z" transform="translate(-13340.731 -18081.104)"/>
          <path id="Tracé_91" data-name="Tracé 91" class="cls-1" d="M13642.071,18569.391c-2.473-1-4.287,13.113-1.032,14.545,2.411,1.061,11.476-4.555,13.447-7.008,1.03-1.279,1.272-6.521,0-7.537C13652.437,18567.764,13646.648,18571.252,13642.071,18569.391Z" transform="translate(-13636.366 -18564.18)"/>
        </g>
        <g id="Groupe_230" data-name="Groupe 230" transform="translate(124.861 4.997)">
          <path id="Tracé_92" data-name="Tracé 92" class="cls-1" d="M13229.3,3412.123c-3.862-.882-10.862-.882-13.036,0-1.634.664,1.035,3.863,0,5.293-1.165,1.615-8.653,2.192-7,4.4,3.086,4.119,2.791,11.683,1.05,15.513-1.482,3.259,9.349,1.134,13.812,0,4.516-1.147,8.33-6.25,13.273-6.881,5-.638,12.669,1.269,16.732,3.054,3.3,1.45,5.8,5.558,7.655,7.655,1.336,1.507,1.917,3.682,3.5,4.926,2.022,1.588,5.675,3.226,8.631,4.6,3.224,1.5,7.22,2.823,10.708,4.4,3.464,1.563,7.356,3.549,10.22,5.049,2.364,1.238,5.122,3.752,6.963,3.949a4.182,4.182,0,0,0,4.071-2.767c.3-1.5-2.449-4.46-2.28-6.231s2.792-2.636,3.3-4.4c.55-1.914,1.2-5.143,0-7.084s-5.518-4.316-7.207-4.56c-1.405-.2-1.554,2.747-2.932,3.094-2.041.516-7.472.95-9.324,0-1.77-.909-1.491-3.922-1.79-5.7-.274-1.633,1.2-3.827,0-4.967-1.724-1.635-7.437-4.038-10.342-4.845-2.275-.633-4.83.353-7.084,0-2.23-.35-4.227-1.646-6.434-2.118-2.7-.577-7.132-.665-9.771-1.344-2.148-.552-4.05-1.808-6.066-2.728-2.1-.957-4.374-1.945-6.516-3.013C13236.658,3416.032,13233.015,3412.971,13229.3,3412.123Z" transform="translate(-13209.026 -3411.461)"/>
          <path id="Tracé_93" data-name="Tracé 93" class="cls-1" d="M13809.29,3809.683c-3.755-2.168-19.742-10.465-19.224-5.519.337,3.2-5.965,5.705-7.1,5.519-3.409-.563,2.478,9.242,2.037,12.387-.363,2.582,9.449-3.926,13.611-5.044,3.7-1,7.558-2.062,11.363-1.67,4.143.428,10.552,2.906,13.5,4.234,1.684.76,2.728,2.56,4.176,3.734,1.8,1.462,5.064,3.415,6.642,5.042,1.261,1.3,1.55,3.6,2.808,4.716s3.191,1.262,4.741,2c1.989.951,5.186,2.6,7.2,3.7,1.666.908,3.612,2.751,4.908,2.9a2.955,2.955,0,0,0,2.871-2.028c.21-1.1-.824-3.167-1.608-4.569-1.05-1.881-3.492-4.345-4.7-6.719-1.2-2.349-.75-5.632-2.544-7.522s-5.354-2.9-8.229-3.817-6.031-1.028-9.025-1.67c-3.387-.726-7.729-1.743-11.3-2.688C13816.021,3811.767,13812.36,3811.456,13809.29,3809.683Z" transform="translate(-13776.305 -3798.793)"/>
          <path id="Tracé_94" data-name="Tracé 94" class="cls-1" d="M14494.172,4260.7c-6.191-1.477-27.112-10.223-26.725-6.5.25,2.41-4.009,2.377-4.854,2.236-2.546-.424.333,5.085,0,7.451-.269,1.941,9.521-2.653,13.236-3.184a27.555,27.555,0,0,1,9.057,0,62.761,62.761,0,0,1,12.442,4.125c2.352,1.13,4.22,3.261,6.227,4.843a68.762,68.762,0,0,1,5.821,4.645c1.095,1.129,1.457,3.165,2.572,4s2.731.733,4.111,1.037c1.646.363,5.367,2.171,5.77,1.141s-2.4-5.309-3.358-7.322c-.767-1.605-1.251-3.434-2.411-4.756a15.774,15.774,0,0,0-4.915-3.591,36.525,36.525,0,0,0-6.55-1.771C14501.766,4262.368,14497.639,4261.527,14494.172,4260.7Z" transform="translate(-14449.293 -4245.058)"/>
        </g>
      </g>
      <ellipse id="Ellipse_35" data-name="Ellipse 35" class="cls-2" cx="3.563" rx="3.563" transform="translate(27.423 105.321)"/>
    </g>
    <circle id="Ellipse_34" data-name="Ellipse 34" class="cls-3" cx="5.798" cy="5.798" r="5.798" transform="translate(1727.203 312.175)"/>
  </g>
</svg>
