<svg xmlns="http://www.w3.org/2000/svg" viewBox="0 0 37.689 38">
  <defs>
    <style>
      .cls-1 {
        fill: #fff;
      }
    </style>
  </defs>
  <g id="headphones" transform="translate(-1.2)">
    <g id="Groupe_250" data-name="Groupe 250" transform="translate(1.2)">
      <path id="Tracé_113" data-name="Tracé 113" class="cls-1" d="M37.8,25.005c.1-.777.259-1.5.414-2.278a22.669,22.669,0,0,0,.207-2.64,17.741,17.741,0,0,0-1.243-6.627,17.182,17.182,0,0,0-3.158-5.177,2.391,2.391,0,0,0,.311-1.294,2.994,2.994,0,0,0-.88-1.864,20,20,0,0,0-6.264-3.779,20.912,20.912,0,0,0-3.52-.984A21.574,21.574,0,0,0,19.993,0a17.7,17.7,0,0,0-3.676.362,19.634,19.634,0,0,0-3.52.984,21.661,21.661,0,0,0-3.313,1.6A19.673,19.673,0,0,0,6.532,5.125a2.542,2.542,0,0,0-.88,1.864,2.807,2.807,0,0,0,.311,1.294A19.554,19.554,0,0,0,2.8,13.46a18.833,18.833,0,0,0-1.243,6.627,15.129,15.129,0,0,0,.207,2.64,18.034,18.034,0,0,0,.518,2.278A7.727,7.727,0,0,0,1.2,28.94v.984a7.853,7.853,0,0,0,2.381,5.695A8.063,8.063,0,0,0,9.276,38h1.4a.983.983,0,0,0,.984-.984V22a.983.983,0,0,0-.984-.984H9.121A7.758,7.758,0,0,0,3.84,23.09l-.155-.621a17.811,17.811,0,0,1-.155-2.381,17.134,17.134,0,0,1,1.087-5.954A16.959,16.959,0,0,1,7.361,9.578a2.437,2.437,0,0,0,.828.207,2.85,2.85,0,0,0,1.967-.673,16.84,16.84,0,0,1,2.174-1.6,13.255,13.255,0,0,1,2.433-1.191,14.761,14.761,0,0,1,2.589-.725,15.309,15.309,0,0,1,2.692-.259,15.309,15.309,0,0,1,2.692.259,14.761,14.761,0,0,1,2.589.725,15.105,15.105,0,0,1,2.433,1.191,13.092,13.092,0,0,1,2.174,1.6,2.556,2.556,0,0,0,1.967.673,2.171,2.171,0,0,0,.828-.207,15.815,15.815,0,0,1,3.831,10.51,18.393,18.393,0,0,1-.155,2.381l-.155.621a8.009,8.009,0,0,0-5.281-2.071H29.415a.983.983,0,0,0-.984.984V37.016a.983.983,0,0,0,.984.984h1.4a7.853,7.853,0,0,0,5.695-2.381,8.063,8.063,0,0,0,2.381-5.695V28.94A7.873,7.873,0,0,0,37.8,25.005ZM7.93,23.038a7.755,7.755,0,0,1,1.139-.1H9.69v13.1H9.225a5.969,5.969,0,0,1-1.346-.155ZM4.876,24.695a6.1,6.1,0,0,1,1.139-.88V35.1a6.006,6.006,0,0,1-1.087-.828,6.184,6.184,0,0,1-1.812-4.349V28.94A5.987,5.987,0,0,1,4.876,24.695ZM32.211,7.61a.824.824,0,0,1-.518.259.779.779,0,0,1-.569-.207A16.493,16.493,0,0,0,28.69,5.85,19.221,19.221,0,0,0,25.947,4.5a18.559,18.559,0,0,0-2.9-.828,20.269,20.269,0,0,0-3.054-.259,19.049,19.049,0,0,0-3,.259,18.559,18.559,0,0,0-2.9.828A19.221,19.221,0,0,0,11.347,5.85,16.493,16.493,0,0,0,8.914,7.662a.779.779,0,0,1-.569.207.831.831,0,0,1-.569-.259.779.779,0,0,1-.207-.569.831.831,0,0,1,.259-.569A17.115,17.115,0,0,1,10.519,4.5a17.3,17.3,0,0,1,2.951-1.45,14.071,14.071,0,0,1,3.21-.88,17.827,17.827,0,0,1,6.627,0,22.618,22.618,0,0,1,3.21.88A19.5,19.5,0,0,1,29.467,4.5a19.907,19.907,0,0,1,2.692,1.967.831.831,0,0,1,.259.569A.779.779,0,0,1,32.211,7.61ZM32,35.877a5.216,5.216,0,0,1-1.294.155H30.3v-13.1h.569a9.242,9.242,0,0,1,1.191.1Zm4.866-5.954a6.061,6.061,0,0,1-1.812,4.349,6.638,6.638,0,0,1-1.139.88l.052-11.286a6.1,6.1,0,0,1,1.139.88,5.987,5.987,0,0,1,1.76,4.245Z" transform="translate(-1.2)"/>
    </g>
  </g>
</svg>
