<?xml version="1.0" encoding="UTF-8" standalone="no"?><!DOCTYPE svg PUBLIC "-//W3C//DTD SVG 1.1//EN" "http://www.w3.org/Graphics/SVG/1.1/DTD/svg11.dtd"><svg width="100%" height="100%" viewBox="0 0 512 512" version="1.1" xmlns="http://www.w3.org/2000/svg" xmlns:xlink="http://www.w3.org/1999/xlink" xml:space="preserve" xmlns:serif="http://www.serif.com/" style="fill-rule:evenodd;clip-rule:evenodd;stroke-linejoin:round;stroke-miterlimit:1.41421;"><path d="M143.777,136.275c-21.816,0 -39.564,17.749 -39.564,39.564c0,21.815 17.749,39.564 39.564,39.564c21.816,0 39.565,-17.749 39.565,-39.564c-0.001,-21.815 -17.75,-39.564 -39.565,-39.564Zm0,64.129c-13.545,0 -24.564,-11.02 -24.564,-24.564c0,-13.544 11.02,-24.564 24.564,-24.564c13.544,0 24.565,11.02 24.565,24.564c0,13.544 -11.021,24.564 -24.565,24.564Z" style="fill:#5d5d5d;fill-rule:nonzero;"/><path d="M312.113,320.646c-21.815,0 -39.564,17.748 -39.564,39.564c0,21.816 17.749,39.564 39.564,39.564c21.815,0 39.564,-17.749 39.564,-39.564c0,-21.815 -17.749,-39.564 -39.564,-39.564Zm0.001,64.126c-13.544,0 -24.564,-11.02 -24.564,-24.564c0,-13.544 11.019,-24.564 24.564,-24.564c13.545,0 24.564,11.02 24.564,24.564c0,13.544 -11.02,24.564 -24.564,24.564Z" style="fill:#5d5d5d;fill-rule:nonzero;"/><path d="M159.808,304.613c-17.396,0 -31.548,14.153 -31.548,31.549c0,17.396 14.152,31.548 31.548,31.548c17.396,0 31.549,-14.152 31.549,-31.548c0,-17.396 -14.153,-31.549 -31.549,-31.549Zm0,48.097c-9.125,0 -16.548,-7.423 -16.548,-16.548c0,-9.125 7.423,-16.549 16.548,-16.549c9.125,0 16.549,7.424 16.549,16.549c0,9.125 -7.424,16.548 -16.549,16.548Z" style="fill:#5d5d5d;fill-rule:nonzero;"/><path d="M247.986,192.388c-12.975,0 -23.532,10.557 -23.532,23.532c0,12.976 10.557,23.532 23.532,23.532c12.975,0 23.532,-10.557 23.532,-23.532c-0.001,-12.975 -10.557,-23.532 -23.532,-23.532Zm0,32.064c-4.704,0 -8.532,-3.828 -8.532,-8.532c0,-4.704 3.827,-8.532 8.532,-8.532c4.705,0 8.532,3.828 8.532,8.532c0,4.704 -3.828,8.532 -8.532,8.532Z" style="fill:#5d5d5d;fill-rule:nonzero;"/><path d="M406.999,324.791l-8.016,-16.033c-1.852,-3.705 -6.357,-5.208 -10.062,-3.354c-3.705,1.852 -5.207,6.357 -3.354,10.062l8.016,16.033c1.314,2.629 3.962,4.148 6.714,4.148c1.127,0 2.271,-0.255 3.348,-0.793c3.705,-1.853 5.207,-6.357 3.354,-10.063Z" style="fill:#5d5d5d;fill-rule:nonzero;"/><path d="M334.854,268.679c-1.853,-3.705 -6.356,-5.208 -10.062,-3.354l-16.032,8.016c-3.705,1.852 -5.207,6.357 -3.354,10.062c1.314,2.628 3.962,4.147 6.714,4.147c1.127,0 2.271,-0.255 3.348,-0.793l16.032,-8.016c3.705,-1.852 5.207,-6.357 3.354,-10.062Z" style="fill:#5d5d5d;fill-rule:nonzero;"/><path d="M102.388,260.662l-8.016,-16.032c-1.852,-3.705 -6.357,-5.208 -10.062,-3.354c-3.705,1.852 -5.207,6.357 -3.354,10.062l8.016,16.032c1.314,2.628 3.962,4.147 6.714,4.147c1.127,0 2.271,-0.255 3.348,-0.793c3.705,-1.852 5.207,-6.357 3.354,-10.062Z" style="fill:#5d5d5d;fill-rule:nonzero;"/><path d="M222.63,396.935c-1.852,-3.705 -6.357,-5.207 -10.062,-3.354l-16.032,8.016c-3.705,1.852 -5.207,6.357 -3.354,10.062c1.314,2.628 3.962,4.147 6.714,4.147c1.127,0 2.271,-0.255 3.348,-0.793l16.032,-8.016c3.705,-1.852 5.207,-6.357 3.354,-10.062Z" style="fill:#5d5d5d;fill-rule:nonzero;"/><path d="M221.225,90.376l-8.016,-8.017c-2.928,-2.929 -7.677,-2.929 -10.606,0c-2.929,2.929 -2.929,7.677 0,10.606l8.017,8.017c1.464,1.465 3.384,2.197 5.303,2.197c1.919,0 3.839,-0.732 5.303,-2.197c2.928,-2.928 2.928,-7.676 -0.001,-10.606Z" style="fill:#5d5d5d;fill-rule:nonzero;"/><path d="M205.192,274.745l-8.016,-8.016c-2.928,-2.929 -7.677,-2.929 -10.606,0c-2.929,2.929 -2.929,7.678 0,10.606l8.016,8.016c1.464,1.464 3.384,2.197 5.303,2.197c1.919,0 3.839,-0.732 5.303,-2.197c2.929,-2.929 2.929,-7.678 0,-10.606Z" style="fill:#5d5d5d;fill-rule:nonzero;"/><path d="M288.066,432.87c-4.142,0 -7.5,3.358 -7.5,7.5l0,8.016c0,4.142 3.358,7.5 7.5,7.5c4.142,0 7.5,-3.358 7.5,-7.5l0,-8.016c0,-4.142 -3.358,-7.5 -7.5,-7.5Z" style="fill:#5d5d5d;fill-rule:nonzero;"/><path d="M253.289,130.457c-2.929,-2.929 -7.678,-2.929 -10.606,0l-8.016,8.016c-2.929,2.929 -2.929,7.678 0,10.606c1.464,1.464 3.384,2.197 5.303,2.197c1.919,0 3.839,-0.733 5.303,-2.197l8.016,-8.016c2.929,-2.929 2.929,-7.678 0,-10.606Z" style="fill:#5d5d5d;fill-rule:nonzero;"/><path d="M430.049,46.013c-8.312,-7.935 -19.844,-10.7 -30.85,-7.398l-25.318,7.596c-11.435,3.43 -20.092,13.255 -22.054,25.031l-2.3,13.799c-2.472,14.839 5.957,29.444 20.043,34.726l20.361,7.636c3.576,1.341 7.328,2.006 11.072,2.006c5.059,0 10.103,-1.214 14.672,-3.614c7.951,-4.175 13.761,-11.567 15.939,-20.28l7.257,-29.03c2.787,-11.147 -0.511,-22.538 -8.822,-30.472Zm-5.729,26.833l-7.257,29.03c-1.16,4.638 -4.129,8.416 -8.361,10.638c-4.232,2.222 -9.027,2.522 -13.504,0.844l-20.361,-7.636c-7.389,-2.771 -11.81,-10.431 -10.513,-18.215l2.3,-13.799c1.029,-6.177 5.57,-11.331 11.568,-13.13l25.318,-7.596c1.604,-0.481 3.229,-0.716 4.833,-0.716c4.17,0 8.2,1.591 11.349,4.597c4.359,4.161 6.089,10.136 4.628,15.983Z" style="fill:#5d5d5d;fill-rule:nonzero;"/><path d="M481.551,179.395c-0.756,-6.47 -4.042,-12.187 -9.254,-16.095l-10.637,-7.978c-7.176,-5.383 -16.619,-6.235 -24.644,-2.222l-9.68,4.84c-11.129,5.564 -16.007,18.881 -11.106,30.318l7.789,18.173c3.251,7.584 10.066,12.824 18.231,14.016c1.16,0.169 2.317,0.252 3.464,0.252c6.926,0 13.479,-3.035 18.012,-8.473l12.53,-15.036c4.17,-5.005 6.051,-11.325 5.295,-17.795Zm-16.819,8.192l-12.53,15.036c-1.944,2.333 -4.783,3.419 -7.787,2.98c-3.005,-0.438 -5.414,-2.291 -6.61,-5.082l-7.789,-18.173c-1.777,-4.147 -0.008,-8.976 4.027,-10.993l9.683,-4.839c1.217,-0.609 2.524,-0.909 3.824,-0.909c1.806,0 3.597,0.58 5.11,1.714l10.637,7.978c1.89,1.417 3.082,3.49 3.355,5.836c0.273,2.346 -0.408,4.638 -1.92,6.452Z" style="fill:#5d5d5d;fill-rule:nonzero;"/><path d="M488.468,88.18c-12.975,0 -23.532,10.557 -23.532,23.532c0,12.975 10.556,23.532 23.532,23.532c12.976,0 23.532,-10.558 23.532,-23.533c0,-12.974 -10.557,-23.531 -23.532,-23.531Zm0,32.063c-4.704,0 -8.532,-3.828 -8.532,-8.532c0,-4.704 3.827,-8.532 8.532,-8.532c4.705,0 8.532,3.828 8.532,8.532c0,4.704 -3.828,8.532 -8.532,8.532Z" style="fill:#5d5d5d;fill-rule:nonzero;"/><path d="M504.446,284.35c-3.53,-3.584 -8.64,-5.282 -13.671,-4.543c-3.424,0.502 -6.897,0.757 -10.323,0.757c-31.672,0 -59.458,-20.258 -69.146,-50.412c-2.649,-8.243 -9.433,-14.342 -17.704,-15.917c-56.806,-10.815 -98.036,-60.676 -98.036,-118.558c0,-23.902 7,-47.026 20.245,-66.87c2.905,-4.353 3.45,-9.817 1.458,-14.617c-1.996,-4.809 -6.261,-8.288 -11.408,-9.307c-25.516,-5.053 -51.697,-6.19 -77.811,-3.377c-52.26,5.627 -100.969,27.182 -140.863,62.338c-3.108,2.738 -3.407,7.478 -0.668,10.585c2.738,3.107 7.478,3.407 10.585,0.668c37.556,-33.095 83.391,-53.385 132.551,-58.676c24.608,-2.65 49.267,-1.58 73.292,3.178c0.175,0.035 0.368,0.103 0.468,0.343c0.094,0.227 0.017,0.394 -0.081,0.54c-14.895,22.318 -22.768,48.321 -22.768,75.196c0,65.076 46.359,121.133 110.23,133.293c2.874,0.547 5.261,2.758 6.229,5.77c11.688,36.38 45.215,60.823 83.427,60.823c4.153,0 8.359,-0.309 12.502,-0.917c0.553,-0.082 0.835,0.245 0.847,0.328c-7.23,44.46 -26.873,85.965 -56.805,120.03c-2.734,3.112 -2.428,7.851 0.684,10.585c1.424,1.251 3.19,1.866 4.948,1.866c2.083,0 4.154,-0.862 5.637,-2.549c31.793,-36.184 52.659,-80.28 60.341,-127.523c0.783,-4.804 -0.733,-9.554 -4.16,-13.034Z" style="fill:#5d5d5d;fill-rule:nonzero;"/><path d="M425.595,437.681c-2.735,-3.109 -7.475,-3.412 -10.585,-0.676c-43.976,38.688 -100.446,59.994 -159.009,59.994c-33.757,0 -66.405,-6.84 -97.038,-20.332c-29.596,-13.034 -55.911,-31.618 -78.212,-55.235c-22.266,-23.579 -39.282,-50.858 -50.576,-81.08c-11.744,-31.428 -16.711,-64.588 -14.764,-98.559c3.035,-52.954 24.24,-104.336 59.708,-144.683c2.735,-3.111 2.43,-7.85 -0.681,-10.584c-3.11,-2.735 -7.85,-2.431 -10.584,0.681c-37.67,42.85 -60.192,97.444 -63.418,153.728c-2.067,36.063 3.211,71.278 15.689,104.668c11.999,32.108 30.073,61.086 53.721,86.127c23.685,25.082 51.635,44.819 83.072,58.665c32.55,14.335 67.232,21.603 103.083,21.603c62.211,0 122.201,-22.634 168.917,-63.732c3.11,-2.736 3.413,-7.475 0.677,-10.585Z" style="fill:#5d5d5d;fill-rule:nonzero;"/></svg>