<svg xmlns="http://www.w3.org/2000/svg" viewBox="0 0 72.466 72.466">
  <defs>
    <style>
      .cls-1 {
        fill: #fff;
      }

      .cls-2 {
        fill: #4b4b4b;
      }
    </style>
  </defs>
  <g id="Groupe_84" data-name="Groupe 84" transform="translate(-1781.534 -63)">
    <circle id="Ellipse_3" data-name="Ellipse 3" class="cls-1" cx="36.233" cy="36.233" r="36.233" transform="translate(1781.534 63)"/>
    <g id="cancel" transform="translate(1802 83.999)">
      <g id="Groupe_214" data-name="Groupe 214" transform="translate(0 0.001)">
        <path id="Tracé_69" data-name="Tracé 69" class="cls-2" d="M31.295,27.91,17.651,14.993,31.295,2.077a1.17,1.17,0,0,0,0-1.719,1.336,1.336,0,0,0-1.816,0L15.836,13.274,2.192.358a1.336,1.336,0,0,0-1.816,0,1.17,1.17,0,0,0,0,1.719L14.02,14.993.377,27.91a1.17,1.17,0,0,0,0,1.719,1.336,1.336,0,0,0,1.816,0L15.836,16.712,29.479,29.629a1.336,1.336,0,0,0,1.816,0A1.17,1.17,0,0,0,31.295,27.91Z" transform="translate(0 -0.001)"/>
      </g>
    </g>
  </g>
</svg>
