<svg xmlns="http://www.w3.org/2000/svg" viewBox="0 0 72.466 72.466">
  <defs>
    <style>
      .cls-1 {
        fill: #fff;
      }

      .cls-2 {
        fill: #4b4b4b;
        stroke: #4b4b4b;
      }
    </style>
  </defs>
  <g id="Groupe_84" data-name="Groupe 84" transform="translate(-1781.534 -63)">
    <circle id="Ellipse_3" data-name="Ellipse 3" class="cls-1" cx="36.233" cy="36.233" r="36.233" transform="translate(1781.534 63)"/>
    <path id="map" class="cls-2" d="M37.671,2.13a.686.686,0,0,0-.622-.095L24.813,6.115,13.271,3.4a.6.6,0,0,0-.086,0,.7.7,0,0,0-.222,0L.54,6.158A.69.69,0,0,0,0,6.832V36.508a.691.691,0,0,0,.69.69.737.737,0,0,0,.15-.016l12.29-2.731,11.6,2.046a.642.642,0,0,0,.12.011.693.693,0,0,0,.243-.046H25.1l12.423-4.831a.692.692,0,0,0,.44-.644V2.691A.69.69,0,0,0,37.671,2.13ZM1.38,7.384,12.423,4.931V33.193L1.38,35.648ZM13.8,4.942,24.155,7.378V34.995L13.8,33.169ZM36.578,30.515,25.536,34.809V7.329L36.578,3.648Z" transform="translate(1798.788 79.635)"/>
  </g>
</svg>
