<svg xmlns="http://www.w3.org/2000/svg" width="40" height="40" viewBox="0 0 40 40">
  <g id="Groupe_503" data-name="Groupe 503" transform="translate(-533 -189)">
    <circle id="Ellipse_53" data-name="Ellipse 53" cx="20" cy="20" r="20" transform="translate(533 189)" fill="rgba(223,223,223,0.51)"/>
    <g id="settings" transform="translate(540.801 196.999)">
      <g id="Groupe_274" data-name="Groupe 274" transform="translate(0 0.001)">
        <path id="Tracé_120" data-name="Tracé 120" d="M23.71,9.872l-1.754-.3a9.9,9.9,0,0,0-.7-1.7l1.034-1.446a1.539,1.539,0,0,0-.167-1.989L20.563,2.883a1.532,1.532,0,0,0-1.091-.454,1.517,1.517,0,0,0-.893.287L17.128,3.749a9.8,9.8,0,0,0-1.764-.726L15.071,1.29A1.542,1.542,0,0,0,13.547,0h-2.2A1.542,1.542,0,0,0,9.824,1.29l-.3,1.775a9.66,9.66,0,0,0-1.7.715L6.39,2.747A1.542,1.542,0,0,0,4.4,2.914L2.84,4.47a1.545,1.545,0,0,0-.167,1.989L3.717,7.925a9.674,9.674,0,0,0-.694,1.707l-1.733.292A1.542,1.542,0,0,0,0,11.449v2.2a1.542,1.542,0,0,0,1.289,1.524l1.775.3a9.66,9.66,0,0,0,.715,1.7L2.751,18.6a1.539,1.539,0,0,0,.167,1.989l1.556,1.556a1.532,1.532,0,0,0,1.091.454,1.517,1.517,0,0,0,.893-.287l1.467-1.044a9.875,9.875,0,0,0,1.65.679L9.866,23.7a1.542,1.542,0,0,0,1.524,1.289h2.2A1.542,1.542,0,0,0,15.118,23.7l.3-1.754a9.9,9.9,0,0,0,1.7-.7l1.446,1.034a1.533,1.533,0,0,0,.9.287h0a1.532,1.532,0,0,0,1.091-.454l1.556-1.556a1.545,1.545,0,0,0,.167-1.989l-1.034-1.451a9.833,9.833,0,0,0,.7-1.7l1.754-.292a1.542,1.542,0,0,0,1.289-1.524V11.4A1.524,1.524,0,0,0,23.71,9.872Zm-.12,3.722a.135.135,0,0,1-.115.136l-2.192.365a.7.7,0,0,0-.564.517,8.357,8.357,0,0,1-.908,2.187.706.706,0,0,0,.031.767l1.289,1.817a.142.142,0,0,1-.016.177L19.56,21.117a.133.133,0,0,1-.1.042.128.128,0,0,1-.078-.026l-1.811-1.289a.705.705,0,0,0-.767-.031,8.357,8.357,0,0,1-2.187.908.693.693,0,0,0-.517.564l-.371,2.192a.135.135,0,0,1-.136.115H11.4a.135.135,0,0,1-.136-.115l-.365-2.192a.7.7,0,0,0-.517-.564,8.677,8.677,0,0,1-2.14-.877.723.723,0,0,0-.355-.094.687.687,0,0,0-.407.131l-1.827,1.3a.155.155,0,0,1-.078.026.14.14,0,0,1-.1-.042L3.915,19.608a.142.142,0,0,1-.016-.177l1.284-1.8a.715.715,0,0,0,.031-.773A8.278,8.278,0,0,1,4.3,14.675a.715.715,0,0,0-.564-.517l-2.208-.376a.135.135,0,0,1-.115-.136v-2.2a.135.135,0,0,1,.115-.136L3.7,10.948a.706.706,0,0,0,.569-.522,8.348,8.348,0,0,1,.893-2.193.7.7,0,0,0-.037-.762l-1.3-1.827a.142.142,0,0,1,.016-.177L5.4,3.911a.133.133,0,0,1,.1-.042.128.128,0,0,1,.078.026l1.8,1.284a.715.715,0,0,0,.773.031,8.278,8.278,0,0,1,2.182-.919.715.715,0,0,0,.517-.564l.376-2.208a.135.135,0,0,1,.136-.115h2.2a.135.135,0,0,1,.136.115L14.058,3.7a.706.706,0,0,0,.522.569,8.473,8.473,0,0,1,2.239.919.706.706,0,0,0,.767-.031l1.8-1.295a.155.155,0,0,1,.078-.026.14.14,0,0,1,.1.042L21.121,5.43a.142.142,0,0,1,.016.177L19.847,7.419a.705.705,0,0,0-.031.767,8.357,8.357,0,0,1,.908,2.187.693.693,0,0,0,.564.517l2.193.371a.135.135,0,0,1,.115.136v2.2Z" transform="translate(0 -0.001)" fill="#fff"/>
        <path id="Tracé_121" data-name="Tracé 121" d="M141.492,136a5.393,5.393,0,1,0,5.393,5.393A5.4,5.4,0,0,0,141.492,136Zm0,9.376a3.983,3.983,0,1,1,3.983-3.983A3.986,3.986,0,0,1,141.492,145.377Z" transform="translate(-128.995 -128.901)" fill="#fff"/>
      </g>
    </g>
  </g>
</svg>
