<svg xmlns="http://www.w3.org/2000/svg" xmlns:xlink="http://www.w3.org/1999/xlink" viewBox="0 0 74.466 74.466">
  <defs>
    <style>
      .cls-1 {
        fill: #e8e8e8;
      }

      .cls-2 {
        fill: #4b4b4b;
      }

      .cls-3 {
        filter: url(#benjamin-parker-736167-unsplash);
      }
    </style>
    <filter id="benjamin-parker-736167-unsplash" x="0" y="0" width="74.466" height="74.466" filterUnits="userSpaceOnUse">
      <feOffset dx="3" dy="5" input="SourceAlpha"/>
      <feGaussianBlur stdDeviation="4.5" result="blur"/>
      <feFlood flood-opacity="0.149"/>
      <feComposite operator="in" in2="blur"/>
      <feComposite in="SourceGraphic"/>
    </filter>
  </defs>
  <g id="Groupe_212" data-name="Groupe 212" transform="translate(-161.034 -102.5)">
    <g class="cls-3" transform="matrix(1, 0, 0, 1, 161.03, 102.5)">
      <circle id="benjamin-parker-736167-unsplash-2" data-name="benjamin-parker-736167-unsplash" class="cls-1" cx="23.733" cy="23.733" r="23.733" transform="translate(10.5 8.5)"/>
    </g>
    <g id="preference" transform="translate(182.285 122)">
      <g id="Groupe_208" data-name="Groupe 208" transform="translate(0 0)">
        <g id="Groupe_207" data-name="Groupe 207">
          <path id="Tracé_65" data-name="Tracé 65" class="cls-2" d="M24.855,11.045c-.2-.128-1.8-1.082-2.429-1.371l-.784-1.893c.233-.626.678-2.382.748-2.687a.842.842,0,0,0-.225-.783L20.938,3.085a.842.842,0,0,0-.783-.225c-.231.053-2.033.5-2.687.748l-1.893-.784C15.3,2.218,14.373.663,14.2.4A.841.841,0,0,0,13.492,0H11.757A.842.842,0,0,0,11.044.4c-.128.2-1.082,1.8-1.371,2.429L7.78,3.608C7.154,3.375,5.4,2.93,5.093,2.86a.842.842,0,0,0-.783.225L3.084,4.312a.842.842,0,0,0-.225.783c.053.231.5,2.033.748,2.687L2.823,9.674c-.606.277-2.16,1.2-2.429,1.371A.841.841,0,0,0,0,11.758v1.734a.842.842,0,0,0,.394.713c.2.128,1.8,1.082,2.429,1.371l.784,1.893c-.233.626-.678,2.382-.748,2.687a.842.842,0,0,0,.225.783l1.226,1.226a.842.842,0,0,0,.783.225c.231-.053,2.033-.5,2.687-.748l1.893.784c.277.606,1.2,2.16,1.371,2.429a.842.842,0,0,0,.713.394h1.734a.842.842,0,0,0,.713-.394c.128-.2,1.082-1.8,1.371-2.429l1.893-.784c.626.233,2.382.678,2.687.748a.841.841,0,0,0,.783-.225l1.226-1.226a.842.842,0,0,0,.225-.783c-.053-.231-.5-2.033-.748-2.687l.784-1.893c.606-.277,2.16-1.2,2.429-1.371a.842.842,0,0,0,.394-.713V11.758A.842.842,0,0,0,24.855,11.045Zm-1.289,1.973h0c-.6.356-1.6.93-1.91,1.06a.842.842,0,0,0-.641.509l-1.07,2.584a.842.842,0,0,0,.094.813c.13.313.429,1.425.6,2.1l-.556.556c-.676-.172-1.787-.472-2.1-.6a.841.841,0,0,0-.813-.094l-2.584,1.07a.842.842,0,0,0-.509.641c-.13.313-.7,1.311-1.06,1.91h-.786c-.356-.6-.93-1.6-1.06-1.91a.842.842,0,0,0-.509-.641l-2.584-1.07a.842.842,0,0,0-.813.094c-.313.13-1.425.429-2.1.6l-.556-.556c.172-.676.472-1.787.6-2.1a.842.842,0,0,0,.094-.813l-1.07-2.584a.842.842,0,0,0-.641-.509c-.313-.13-1.311-.7-1.91-1.06v-.786c.6-.356,1.6-.93,1.91-1.06a.842.842,0,0,0,.641-.509L5.305,8.08a.842.842,0,0,0-.094-.813c-.13-.313-.429-1.425-.6-2.1l.556-.556c.676.172,1.787.472,2.1.6a.842.842,0,0,0,.813.094l2.584-1.07a.842.842,0,0,0,.509-.641c.13-.313.7-1.311,1.06-1.91h.786c.356.6.93,1.6,1.06,1.91a.842.842,0,0,0,.509.641l2.584,1.07a.842.842,0,0,0,.813-.094c.313-.13,1.425-.429,2.1-.6l.556.556c-.172.676-.472,1.787-.6,2.1a.842.842,0,0,0-.094.813l1.07,2.584a.842.842,0,0,0,.641.509c.313.13,1.311.7,1.91,1.06v.786Z" transform="translate(0 -0.001)"/>
        </g>
      </g>
      <g id="Groupe_210" data-name="Groupe 210" transform="translate(7.121 7.121)">
        <g id="Groupe_209" data-name="Groupe 209">
          <path id="Tracé_66" data-name="Tracé 66" class="cls-2" d="M149.9,144.4a5.5,5.5,0,1,0,5.5,5.5A5.51,5.51,0,0,0,149.9,144.4Zm0,9.324a3.82,3.82,0,1,1,3.82-3.82A3.825,3.825,0,0,1,149.9,153.72Z" transform="translate(-144.395 -144.396)"/>
        </g>
      </g>
    </g>
  </g>
</svg>
