<svg xmlns="http://www.w3.org/2000/svg" viewBox="0 0 45 45">
  <defs>
    <style>
      .cls-1, .cls-4 {
        fill: none;
      }

      .cls-1 {
        stroke: #fff;
        stroke-width: 2px;
      }

      .cls-2 {
        fill: #fff;
      }

      .cls-3 {
        stroke: none;
      }
    </style>
  </defs>
  <g id="Groupe_472" data-name="Groupe 472" transform="translate(-219 -442)">
    <g id="Groupe_1" data-name="Groupe 1" transform="translate(132 -254)">
      <g id="Rectangle_1" data-name="Rectangle 1" class="cls-1" transform="translate(87 696)">
        <rect class="cls-3" width="45" height="45" rx="22.5"/>
        <rect class="cls-4" x="1" y="1" width="43" height="43" rx="21.5"/>
      </g>
    </g>
    <g id="speaker" transform="translate(230 451.002)">
      <path id="Tracé_116" data-name="Tracé 116" class="cls-2" d="M40.435,20.833l3.106-3.106a.426.426,0,0,0-.6-.6l-3.106,3.106-3.106-3.106a.426.426,0,0,0-.6.6l3.106,3.106-3.106,3.106a.426.426,0,1,0,.6.6l3.106-3.106,3.106,3.106a.426.426,0,0,0,.6-.6Z" transform="translate(-20.667 -7.464)"/>
      <path id="Tracé_117" data-name="Tracé 117" class="cls-2" d="M12.1,4.169a1.29,1.29,0,0,0-1.316.019.4.4,0,0,0-.055.04L4.955,9.11H.426A.426.426,0,0,0,0,9.536v8.092a.426.426,0,0,0,.426.426l4.519,0,5.768,5.3a.416.416,0,0,0,.069.051,1.29,1.29,0,0,0,1.316.019,1.33,1.33,0,0,0,.68-1.173V5.343A1.331,1.331,0,0,0,12.1,4.169Zm-.172,18.077a.489.489,0,0,1-.247.432.447.447,0,0,1-.426.011L5.537,17.439V15.5a.426.426,0,0,0-.852,0v1.7l-3.833,0V9.962H4.685v1.7a.426.426,0,1,0,.852,0V9.733L11.246,4.9a.445.445,0,0,1,.433.008.488.488,0,0,1,.247.432Z"/>
    </g>
  </g>
</svg>
