<svg xmlns="http://www.w3.org/2000/svg" viewBox="0 0 12 12.013">
  <defs>
    <style>
      .cls-1 {
        fill: #fff;
      }
    </style>
  </defs>
  <path id="magician-hat" class="cls-1" d="M6,0,1.553,9.9H0v.352A1.777,1.777,0,0,0,1.78,12.013h8.461A1.76,1.76,0,0,0,12,10.255V9.9H10.468Zm.352,9.2v.7h-.7V9.2Zm.7,0H9.379l.317.7H7.054ZM6,1.713,9.062,8.5H2.955ZM2.639,9.2H4.944v.7H2.324Zm7.6,2.109H1.78a1.094,1.094,0,0,1-1.014-.7H11.236a1.056,1.056,0,0,1-.994.7Zm0,0" transform="translate(0.001)"/>
</svg>
