<svg xmlns="http://www.w3.org/2000/svg" viewBox="0 0 17.579 17.856">
  <defs>
    <style>
      .cls-1 {
        opacity: 0.7;
      }

      .cls-2 {
        fill: #fff;
      }
    </style>
  </defs>
  <g id="key" class="cls-1" transform="translate(0 0)">
    <g id="Groupe_50" data-name="Groupe 50" transform="translate(0)">
      <g id="Groupe_49" data-name="Groupe 49">
        <path id="Tracé_39" data-name="Tracé 39" class="cls-2" d="M15.521,0A6.039,6.039,0,0,0,9.877,8.176L4.107,13.947a.44.44,0,0,0-.129.311v3.158a.44.44,0,0,0,.44.44h2.6a.44.44,0,0,0,.311-.129l.877-.876a.44.44,0,0,0,.129-.311V15.464H9.412a.44.44,0,0,0,.44-.44v-.431h.431a.44.44,0,0,0,.44-.44v-.946h.946a.44.44,0,0,0,.311-.129l1.4-1.4A6.036,6.036,0,1,0,15.521,0Zm0,11.19a5.116,5.116,0,0,1-2.069-.432.44.44,0,0,0-.484.088l0,0-1.477,1.477h-1.2a.44.44,0,0,0-.44.44v.946H9.412a.44.44,0,0,0-.44.44v.431H7.9a.44.44,0,0,0-.44.44v1.334l-.619.618H4.858v-.622l5.376-5.376a.4.4,0,0,0-.56-.56L4.858,15.235v-.795l5.848-5.849,0,0A.44.44,0,0,0,10.8,8.1a5.156,5.156,0,1,1,4.724,3.086Z" transform="translate(-3.978)"/>
      </g>
    </g>
    <g id="Groupe_52" data-name="Groupe 52" transform="translate(11.733 2.551)">
      <g id="Groupe_51" data-name="Groupe 51">
        <path id="Tracé_40" data-name="Tracé 40" class="cls-2" d="M342.048,73.144a1.647,1.647,0,1,0,1.647,1.647A1.649,1.649,0,0,0,342.048,73.144Zm0,2.415a.768.768,0,1,1,.768-.768A.769.769,0,0,1,342.048,75.559Z" transform="translate(-340.401 -73.144)"/>
      </g>
    </g>
  </g>
</svg>
