<?xml version="1.0" encoding="UTF-8" standalone="no"?><!DOCTYPE svg PUBLIC "-//W3C//DTD SVG 1.1//EN" "http://www.w3.org/Graphics/SVG/1.1/DTD/svg11.dtd"><svg width="100%" height="100%" viewBox="0 0 512 512" version="1.1" xmlns="http://www.w3.org/2000/svg" xmlns:xlink="http://www.w3.org/1999/xlink" xml:space="preserve" xmlns:serif="http://www.serif.com/" style="fill-rule:evenodd;clip-rule:evenodd;stroke-linejoin:round;stroke-miterlimit:1.41421;"><path d="M247.984,132.266l-176.355,0c-4.142,0 -7.5,3.358 -7.5,7.5l0,232.468c0,4.142 3.358,7.5 7.5,7.5l16.03,0c4.142,0 7.5,-3.358 7.5,-7.5c0,-4.142 -3.358,-7.5 -7.5,-7.5l-8.53,0l0,-217.468l168.855,0c4.142,0 7.5,-3.358 7.5,-7.5c0,-4.142 -3.358,-7.5 -7.5,-7.5Z" style="fill:#5d5d5d;fill-rule:nonzero;"/><path d="M440.371,276.557c-4.142,0 -7.5,3.358 -7.5,7.5l0,80.677l-313.143,0c-4.142,0 -7.5,3.358 -7.5,7.5c0,4.142 3.358,7.5 7.5,7.5l320.643,0c4.142,0 7.5,-3.358 7.5,-7.5l0,-88.177c0,-4.142 -3.358,-7.5 -7.5,-7.5Z" style="fill:#5d5d5d;fill-rule:nonzero;"/><path d="M232.675,277.571l-24.964,-9.986c-0.197,-0.079 -0.324,-0.267 -0.324,-0.479l0,-15.32c5.027,-6.635 8.016,-14.895 8.016,-23.843l0,-24.048c0,-17.396 -17.749,-31.548 -39.564,-31.548c-21.815,0 -39.564,14.152 -39.564,31.548l0,24.048c0,8.947 2.989,17.208 8.016,23.843l0,15.32c0,0.212 -0.127,0.4 -0.324,0.479l-24.964,9.985c-8.986,3.595 -14.792,12.171 -14.792,21.849l0,24.717c0,8.556 6.96,15.516 15.516,15.516l64.127,0l0,0.001c4.142,0 7.5,-3.358 7.5,-7.5c0,-4.142 -3.358,-7.5 -7.5,-7.5l-64.128,0c-0.285,0 -0.516,-0.231 -0.516,-0.516l0,-24.717c0,-3.509 2.105,-6.619 5.363,-7.922l24.964,-9.985c5.925,-2.37 9.754,-8.025 9.754,-14.407l0,-3.238c5.039,2.33 10.642,3.641 16.548,3.641c5.906,0 11.51,-1.31 16.548,-3.641l0,3.238c0,6.382 3.829,12.037 9.753,14.406l24.963,9.985c3.258,1.304 5.364,4.413 5.364,7.922l0,24.717c0,0.285 -0.231,0.516 -0.516,0.516l-16.035,0c-4.142,0 -7.5,3.358 -7.5,7.5c0,4.142 3.358,7.5 7.5,7.5l16.035,0c8.556,0 15.516,-6.96 15.516,-15.516l0,-24.716c0,-9.678 -5.806,-18.254 -14.792,-21.849Zm-32.273,-49.628c0,13.545 -11.02,24.565 -24.564,24.565c-13.544,0 -24.564,-11.02 -24.564,-24.565l0,-24.048c0,-8.97 11.249,-16.548 24.564,-16.548c13.315,0 24.564,7.578 24.564,16.548l0,24.048Z" style="fill:#5d5d5d;fill-rule:nonzero;"/><path d="M480.452,259.492c17.396,0 31.548,-14.152 31.548,-31.548l0,-128.258c0,-17.396 -14.152,-31.548 -31.548,-31.548l-176.355,0c-17.396,0 -31.548,14.152 -31.548,31.548l0,0.516l-208.936,0c-17.396,0 -31.548,14.152 -31.548,31.548l0,265.048l-16.549,0c-8.556,0 -15.516,6.961 -15.516,15.516l0,8.016c0,12.976 10.557,23.532 23.532,23.532l464.936,0c12.976,0 23.532,-10.557 23.532,-23.532l0,-8.016c0,-8.556 -6.96,-15.516 -15.516,-15.516l-16.548,0l0,-137.306l0.516,0Zm-433.388,-127.742c0,-9.125 7.423,-16.548 16.548,-16.548l208.936,0l0,61.539l-37.884,37.884c-2.145,2.145 -2.787,5.371 -1.626,8.173c1.161,2.803 3.896,4.63 6.929,4.63l32.581,0l0,0.516c0,17.396 14.152,31.548 31.548,31.548l160.839,0l0,137.306l-417.871,0l0,-265.048Zm449.421,280.048c0.284,0 0.515,0.232 0.515,0.516l0,8.016c0,4.705 -3.828,8.532 -8.532,8.532l-464.936,0c-4.705,0 -8.532,-3.828 -8.532,-8.532l0,-8.016c0,-0.285 0.231,-0.516 0.516,-0.516l208.962,0c-0.012,0.171 -0.026,0.342 -0.026,0.516c0,4.142 3.358,7.5 7.5,7.5l48.097,0c4.142,0 7.5,-3.358 7.5,-7.5c0,-0.174 -0.014,-0.345 -0.026,-0.516l208.962,0Zm-192.388,-167.306c-9.125,0 -16.548,-7.423 -16.548,-16.548l0,-8.016c0,-4.142 -3.358,-7.5 -7.5,-7.5l-21.974,0l27.277,-27.277c1.407,-1.406 2.197,-3.314 2.197,-5.303l0,-80.162l-0.001,0c0,-9.125 7.423,-16.548 16.548,-16.548l176.355,0c9.125,0 16.548,7.423 16.548,16.548l0,128.258c0,9.125 -7.423,16.548 -16.548,16.548l-176.354,0Z" style="fill:#5d5d5d;fill-rule:nonzero;"/><path d="M373.528,110.415c-2.929,-2.929 -7.678,-2.929 -10.606,0l-26.761,26.761l-10.729,-10.729c-2.929,-2.929 -7.678,-2.929 -10.606,0c-2.929,2.929 -2.929,7.678 0,10.606l16.032,16.032c1.464,1.464 3.384,2.197 5.303,2.197c1.919,0 3.839,-0.732 5.303,-2.197l32.064,-32.064c2.929,-2.929 2.929,-7.678 0,-10.606Z" style="fill:#5d5d5d;fill-rule:nonzero;"/><path d="M464.42,124.25l-64.129,0c-4.142,0 -7.5,3.358 -7.5,7.5c0,4.142 3.357,7.5 7.5,7.5l64.129,0c4.142,0 7.5,-3.358 7.5,-7.5c0,-4.142 -3.358,-7.5 -7.5,-7.5Z" style="fill:#5d5d5d;fill-rule:nonzero;"/><path d="M373.528,174.544c-2.929,-2.929 -7.678,-2.929 -10.606,0l-26.761,26.761l-10.729,-10.729c-2.929,-2.929 -7.678,-2.929 -10.606,0c-2.929,2.929 -2.929,7.678 0,10.606l16.032,16.032c1.464,1.464 3.384,2.197 5.303,2.197c1.919,0 3.839,-0.732 5.303,-2.197l32.064,-32.064c2.929,-2.929 2.929,-7.678 0,-10.606Z" style="fill:#5d5d5d;fill-rule:nonzero;"/><path d="M464.42,188.379l-64.129,0c-4.142,0 -7.5,3.358 -7.5,7.5c0,4.142 3.357,7.5 7.5,7.5l64.129,0c4.142,0 7.5,-3.358 7.5,-7.5c0,-4.142 -3.358,-7.5 -7.5,-7.5Z" style="fill:#5d5d5d;fill-rule:nonzero;"/><path d="M360.209,316.637l-72.145,0c-4.142,0 -7.5,3.358 -7.5,7.5c0,4.142 3.358,7.5 7.5,7.5l72.145,0c4.142,0 7.5,-3.358 7.5,-7.5c0,-4.142 -3.358,-7.5 -7.5,-7.5Z" style="fill:#5d5d5d;fill-rule:nonzero;"/><path d="M384.258,284.573l-96.194,0c-4.142,0 -7.5,3.358 -7.5,7.5c0,4.142 3.358,7.5 7.5,7.5l96.194,0c4.142,0 7.5,-3.358 7.5,-7.5c0,-4.142 -3.358,-7.5 -7.5,-7.5Z" style="fill:#5d5d5d;fill-rule:nonzero;"/></svg>