<svg xmlns="http://www.w3.org/2000/svg" viewBox="0 0 14.26 19.012">
  <defs>
    <style>
      .cls-1 {
        opacity: 0.75;
      }

      .cls-2 {
        fill: #2d2d2d;
      }
    </style>
  </defs>
  <g id="lock" class="cls-1" transform="translate(-64)">
    <g id="Groupe_222" data-name="Groupe 222" transform="translate(64)">
      <path id="Tracé_71" data-name="Tracé 71" class="cls-2" d="M77.863,7.13H76.675V5.545A5.552,5.552,0,0,0,71.13,0c-3.058,0-5.093,1.374-5.093,4.432v.4a.4.4,0,0,0,.4.4h1.584a.4.4,0,0,0,.4-.4v-.4c0-1.747.782-2,2.716-2.055A3.028,3.028,0,0,1,74.3,5.545V7.13H64.4a.4.4,0,0,0-.4.4v9.9a1.586,1.586,0,0,0,1.584,1.584H76.675a1.586,1.586,0,0,0,1.584-1.584v-9.9A.4.4,0,0,0,77.863,7.13ZM72.316,15.4a.4.4,0,0,1-.394.44H70.337a.4.4,0,0,1-.394-.44l.25-2.247a1.567,1.567,0,0,1-.648-1.274,1.584,1.584,0,0,1,3.169,0,1.567,1.567,0,0,1-.648,1.274Z" transform="translate(-64)"/>
    </g>
  </g>
</svg>
