<svg xmlns="http://www.w3.org/2000/svg" viewBox="0 0 14.438 19.251">
  <defs>
    <style>
      .cls-1 {
        opacity: 0.75;
      }

      .cls-2 {
        fill: #2d2d2d;
      }
    </style>
  </defs>
  <g id="lock" class="cls-1" transform="translate(-64)">
    <g id="Groupe_222" data-name="Groupe 222" transform="translate(64)">
      <g id="lock-2" data-name="lock" transform="translate(-64)">
        <g id="Groupe_224" data-name="Groupe 224" transform="translate(64)">
          <path id="Tracé_73" data-name="Tracé 73" class="cls-2" d="M78.037,7.219h-1.2v-1.6a5.615,5.615,0,0,0-11.23,0v1.6H64.4a.4.4,0,0,0-.4.4V17.647a1.606,1.606,0,0,0,1.6,1.6h11.23a1.606,1.606,0,0,0,1.6-1.6V7.62A.4.4,0,0,0,78.037,7.219ZM72.42,15.6a.4.4,0,0,1-.4.445h-1.6a.4.4,0,0,1-.4-.445l.253-2.275a1.587,1.587,0,0,1-.656-1.29,1.6,1.6,0,0,1,3.209,0,1.587,1.587,0,0,1-.656,1.29Zm2.008-8.378H68.011v-1.6a3.209,3.209,0,0,1,6.417,0Z" transform="translate(-64)"/>
        </g>
      </g>
    </g>
  </g>
</svg>
