<svg xmlns="http://www.w3.org/2000/svg" width="45" height="45" viewBox="0 0 45 45">
  <g id="Groupe_480" data-name="Groupe 480" transform="translate(-87 -684)">
    <g id="Groupe_1" data-name="Groupe 1" transform="translate(0 -12)">
      <g id="Rectangle_1" data-name="Rectangle 1" transform="translate(87 696)" fill="none" stroke="#fff" stroke-width="2">
        <rect width="45" height="45" rx="22.5" stroke="none"/>
        <rect x="1" y="1" width="43" height="43" rx="21.5" fill="none"/>
      </g>
    </g>
    <path id="play-button_2_" data-name="play-button (2)" d="M21.718,9.566,6.332.083A.587.587,0,0,0,5.784.054.47.47,0,0,0,5.5.474V19.439a.471.471,0,0,0,.284.42.587.587,0,0,0,.247.054.579.579,0,0,0,.3-.084l15.386-9.483a.447.447,0,0,0,0-.78ZM6.561,18.536V1.377l13.921,8.58Z" transform="translate(97.5 697)" fill="#fff"/>
  </g>
</svg>
