<svg xmlns="http://www.w3.org/2000/svg" viewBox="0 0 45 45">
  <defs>
    <style>
      .cls-1, .cls-4 {
        fill: none;
      }

      .cls-1 {
        stroke: #fff;
        stroke-width: 2px;
      }

      .cls-2 {
        fill: #fff;
      }

      .cls-3 {
        stroke: none;
      }
    </style>
  </defs>
  <g id="Groupe_342" data-name="Groupe 342" transform="translate(-146 -696)">
    <g id="Groupe_1" data-name="Groupe 1" transform="translate(59)">
      <g id="Rectangle_1" data-name="Rectangle 1" class="cls-1" transform="translate(87 696)">
        <rect class="cls-3" width="45" height="45" rx="22.5"/>
        <rect class="cls-4" x="1" y="1" width="43" height="43" rx="21.5"/>
      </g>
    </g>
    <g id="thin-expand-arrows" transform="translate(-173.684 582)">
      <g id="Groupe_237" data-name="Groupe 237" transform="translate(332.408 138.879)">
        <path id="Tracé_96" data-name="Tracé 96" class="cls-2" d="M8.078,291.147,1.5,297.721v-2.055a.41.41,0,0,0-.819,0v3.044h0v.028a.41.41,0,0,0,.41.41H4.166a.41.41,0,1,0,0-.82H2.055l6.6-6.6a.41.41,0,1,0-.579-.58Z" transform="translate(-0.684 -291.027)"/>
        <path id="Tracé_97" data-name="Tracé 97" class="cls-2" d="M299.123,298.714V295.67a.41.41,0,0,0-.82,0v2.055l-6.574-6.574a.41.41,0,1,0-.579.58l6.6,6.6h-2.111a.41.41,0,1,0,0,.819h3.072a.41.41,0,0,0,.41-.41v-.028Z" transform="translate(-279.179 -291.03)"/>
      </g>
      <g id="Groupe_238" data-name="Groupe 238" transform="translate(332.408 127)">
        <path id="Tracé_98" data-name="Tracé 98" class="cls-2" d="M8.078,8,1.5,1.427V3.482a.41.41,0,0,1-.819,0V.438h0V.41A.41.41,0,0,1,1.094,0H4.166a.41.41,0,1,1,0,.82H2.055l6.6,6.6A.41.41,0,0,1,8.078,8Z" transform="translate(-0.684 0)"/>
        <path id="Tracé_99" data-name="Tracé 99" class="cls-2" d="M299.123.438V3.482a.41.41,0,0,1-.82,0V1.427L291.729,8a.41.41,0,1,1-.579-.579l6.6-6.6h-2.111a.41.41,0,1,1,0-.82h3.072a.41.41,0,0,1,.41.41V.438Z" transform="translate(-279.179 0)"/>
      </g>
    </g>
  </g>
</svg>
