<svg xmlns="http://www.w3.org/2000/svg" viewBox="0 0 24 23.541">
  <defs>
    <style>
      .cls-1 {
        fill: #fff;
      }
    </style>
  </defs>
  <g id="placeholder" transform="translate(0 -0.585)">
    <path id="Tracé_10" data-name="Tracé 10" class="cls-1" d="M26.685,18.077a2.747,2.747,0,1,0-2.747-2.747A2.75,2.75,0,0,0,26.685,18.077Zm0-4.708a1.962,1.962,0,1,1-1.962,1.962A1.964,1.964,0,0,1,26.685,13.369Z" transform="translate(-14.546 -7.291)"/>
    <path id="Tracé_11" data-name="Tracé 11" class="cls-1" d="M19.7,15.1h-2.81l1.2-1.726a8.573,8.573,0,0,0-.7-10.587,7.524,7.524,0,0,0-10.641,0,8.57,8.57,0,0,0-.708,10.575l1.2,1.739H4.3L0,24.126H24ZM6.678,12.9A7.743,7.743,0,0,1,7.3,3.343a6.74,6.74,0,0,1,9.531,0,7.746,7.746,0,0,1,.617,9.573L12.069,20.69,8.2,15.1h0ZM4.793,15.887h3l4.281,6.182,4.281-6.182h2.857l3.55,7.455H1.243Z"/>
  </g>
</svg>
