<svg xmlns="http://www.w3.org/2000/svg" xmlns:xlink="http://www.w3.org/1999/xlink" viewBox="0 0 74.466 74.466">
  <defs>
    <style>
      .cls-1 {
        fill: #e8e8e8;
      }

      .cls-2, .cls-3 {
        fill: #4b4b4b;
      }

      .cls-3 {
        stroke: #4b4b4b;
      }

      .cls-4 {
        filter: url(#benjamin-parker-736167-unsplash);
      }
    </style>
    <filter id="benjamin-parker-736167-unsplash" x="0" y="0" width="74.466" height="74.466" filterUnits="userSpaceOnUse">
      <feOffset dx="3" dy="5" input="SourceAlpha"/>
      <feGaussianBlur stdDeviation="4.5" result="blur"/>
      <feFlood flood-opacity="0.149"/>
      <feComposite operator="in" in2="blur"/>
      <feComposite in="SourceGraphic"/>
    </filter>
  </defs>
  <g id="Groupe_473" data-name="Groupe 473" transform="translate(-161.034 -102.5)">
    <g id="Groupe_212" data-name="Groupe 212">
      <g class="cls-4" transform="matrix(1, 0, 0, 1, 161.03, 102.5)">
        <circle id="benjamin-parker-736167-unsplash-2" data-name="benjamin-parker-736167-unsplash" class="cls-1" cx="23.733" cy="23.733" r="23.733" transform="translate(10.5 8.5)"/>
      </g>
    </g>
    <g id="Groupe_472" data-name="Groupe 472" transform="translate(-1630 77)">
      <path id="userlow" class="cls-2" d="M41.308,15.913a12.263,12.263,0,0,0-4.678-2.934,7.117,7.117,0,1,0-8.054,0A12.263,12.263,0,0,0,23.9,15.913a9.407,9.407,0,0,0-3.259,7.15l1.577,1.555a10.387,10.387,0,1,1,20.774,0l1.715-1.555C44.705,19.775,43.467,18.226,41.308,15.913Zm-8.7-3.606A5.194,5.194,0,1,1,37.8,7.114,5.2,5.2,0,0,1,32.6,12.308Z" transform="translate(1790.17 46.003)"/>
    </g>
    <path id="add" class="cls-3" d="M8.461,3.828H4.633V0H3.828V3.828H0v.806H3.828V8.461h.806V4.633H8.461Z" transform="translate(201.795 130.744)"/>
  </g>
</svg>
