<svg xmlns="http://www.w3.org/2000/svg" viewBox="0 0 54.466 54.466">
  <defs>
    <style>
      .cls-1 {
        fill: #fff;
      }

      .cls-2 {
        fill: #4b4b4b;
      }
    </style>
  </defs>
  <g id="Groupe_472" data-name="Groupe 472" transform="translate(-1703.533 -72)">
    <circle id="benjamin-parker-736167-unsplash" class="cls-1" cx="27.233" cy="27.233" r="27.233" transform="translate(1703.533 72)"/>
    <path id="userlow" class="cls-2" d="M49.948,22.566a17.389,17.389,0,0,0-6.633-4.161,10.092,10.092,0,1,0-11.42,0,17.389,17.389,0,0,0-6.633,4.161c-3.3,3.3-4.281,5.491-4.621,10.139l2.236,2.2a14.729,14.729,0,1,1,29.457,0l2.432-2.2C54.765,28.042,53.008,25.846,49.948,22.566ZM37.6,17.453a7.364,7.364,0,1,1,7.364-7.364A7.373,7.373,0,0,1,37.6,17.453Z" transform="translate(1693.17 81.003)"/>
  </g>
</svg>
