<svg xmlns="http://www.w3.org/2000/svg" viewBox="0 0 15.227 20.002">
  <defs>
    <style>
      .cls-1 {
        opacity: 0.7;
      }

      .cls-2 {
        fill: #fff;
      }
    </style>
  </defs>
  <g id="user" class="cls-1">
    <g id="Groupe_53" data-name="Groupe 53" transform="translate(0)">
      <path id="Tracé_41" data-name="Tracé 41" class="cls-2" d="M73.368,12.988a2.639,2.639,0,0,1-2.661-2.4,4.513,4.513,0,0,0,1.04-1.028,6.249,6.249,0,0,0,1.126-2.937.448.448,0,0,0,.113-.159,4.847,4.847,0,0,0,.376-1.887A4.424,4.424,0,0,0,69.119,0a3.939,3.939,0,0,0-1.766.419,3.1,3.1,0,0,0-.624.112,3.509,3.509,0,0,0-2.2,2.006,4.983,4.983,0,0,0-.247,3.27,5.271,5.271,0,0,0,.229.693.448.448,0,0,0,.106.154,5.624,5.624,0,0,0,2.161,3.929,2.64,2.64,0,0,1-2.661,2.4,3.1,3.1,0,0,0-2.986,3.089v3.475a.45.45,0,0,0,.45.45H75.9a.45.45,0,0,0,.45-.45V16.077A3.1,3.1,0,0,0,73.368,12.988ZM66.978,1.4a2.219,2.219,0,0,1,.516-.084.45.45,0,0,0,.189-.051A3.06,3.06,0,0,1,69.119.9a3.525,3.525,0,0,1,3.342,3.675c0,.061,0,.121,0,.182a1.963,1.963,0,0,0-1.4-.589h-3.07a.838.838,0,0,1-.779-.526.552.552,0,0,0-1.047.069A4.177,4.177,0,0,1,65.14,5.536C64.687,3.672,65.5,1.822,66.978,1.4Zm-.392,7.79a5.3,5.3,0,0,1-1.091-2.741A5.1,5.1,0,0,0,66.8,4.609a1.755,1.755,0,0,0,.14.116,1.726,1.726,0,0,0,1.04.345h3.07a1.07,1.07,0,0,1,.976.633s0,.006,0,.009c0,2.542-1.475,4.611-3.288,4.611A2.817,2.817,0,0,1,66.586,9.186Zm1.035,1.84a3.277,3.277,0,0,0,2.239,0,3.527,3.527,0,0,0,1.31,2.123L68.8,16.52a.078.078,0,0,1-.127,0l-2.366-3.369A3.527,3.527,0,0,0,67.621,11.026ZM75.453,19.1H62.028V16.077a2.193,2.193,0,0,1,2.191-2.191,3.861,3.861,0,0,0,1.314-.278l2.408,3.429a.98.98,0,0,0,.8.416h0a.98.98,0,0,0,.8-.416l2.407-3.428a3.708,3.708,0,0,0,1.313.277,2.193,2.193,0,0,1,2.191,2.191Z" transform="translate(-61.127 0)"/>
    </g>
  </g>
</svg>
