<?xml version="1.0" encoding="UTF-8" standalone="no"?><!DOCTYPE svg PUBLIC "-//W3C//DTD SVG 1.1//EN" "http://www.w3.org/Graphics/SVG/1.1/DTD/svg11.dtd"><svg width="100%" height="100%" viewBox="0 0 512 512" version="1.1" xmlns="http://www.w3.org/2000/svg" xmlns:xlink="http://www.w3.org/1999/xlink" xml:space="preserve" xmlns:serif="http://www.serif.com/" style="fill-rule:evenodd;clip-rule:evenodd;stroke-linejoin:round;stroke-miterlimit:1.41421;"><path d="M480.452,16.032l-448.904,0c-17.396,0 -31.548,14.153 -31.548,31.549l0,352.709c0,17.396 14.152,31.549 31.548,31.549l104.21,0c4.142,0 7.5,-3.358 7.5,-7.5c0,-4.143 -3.358,-7.5 -7.5,-7.5l-104.21,0c-9.125,0 -16.548,-7.424 -16.548,-16.549l0,-289.097l482,0l0,289.097c0,9.125 -7.423,16.549 -16.548,16.549l-104.21,0c-4.142,0 -7.5,3.357 -7.5,7.5c0,4.142 3.358,7.5 7.5,7.5l104.21,0c17.396,0 31.548,-14.153 31.548,-31.549l0,-352.709c0,-17.396 -14.152,-31.549 -31.548,-31.549Zm16.547,80.162l-481.999,0l0,-0.001l0,-48.612c0,-9.125 7.423,-16.548 16.548,-16.548l448.903,0c9.125,0 16.548,7.424 16.548,16.548l0,48.613Z" style="fill:#5d5d5d;fill-rule:nonzero;"/><path d="M39.645,56.113l-0.08,0c-4.142,0 -7.46,3.358 -7.46,7.5c0,4.142 3.398,7.5 7.54,7.5c4.142,0 7.5,-3.358 7.5,-7.5c0,-4.141 -3.358,-7.5 -7.5,-7.5Z" style="fill:#5d5d5d;fill-rule:nonzero;"/><path d="M87.661,56.113l-0.08,0c-4.142,0 -7.46,3.358 -7.46,7.5c0,4.142 3.398,7.5 7.54,7.5c4.142,0 7.5,-3.358 7.5,-7.5c0,-4.141 -3.358,-7.5 -7.5,-7.5Z" style="fill:#5d5d5d;fill-rule:nonzero;"/><path d="M63.613,56.113l-0.08,0c-4.142,0 -7.46,3.358 -7.46,7.5c0,4.142 3.398,7.5 7.54,7.5c4.142,0 7.5,-3.358 7.5,-7.5c0,-4.141 -3.358,-7.5 -7.5,-7.5Z" style="fill:#5d5d5d;fill-rule:nonzero;"/><path d="M472.436,56.113l-352.71,0c-4.142,0 -7.5,3.358 -7.5,7.5c0,4.142 3.358,7.5 7.5,7.5l352.71,0c4.142,0 7.5,-3.358 7.5,-7.5c0,-4.141 -3.358,-7.5 -7.5,-7.5Z" style="fill:#5d5d5d;fill-rule:nonzero;"/><path d="M418.8,208.842l-160.323,-56.113c-1.604,-0.562 -3.352,-0.562 -4.955,0l-160.322,56.113c-3.062,1.071 -5.087,3.989 -5.021,7.232c0.037,1.813 1.147,45.033 21.827,101.201c12.139,32.97 28.547,63.543 48.771,90.87c25.298,34.183 56.651,63.335 93.19,86.646c1.23,0.785 2.632,1.177 4.034,1.177c1.402,0 2.804,-0.393 4.034,-1.177c36.539,-23.311 67.892,-52.463 93.19,-86.646c20.224,-27.327 36.632,-57.9 48.771,-90.87c20.678,-56.168 21.788,-99.388 21.825,-101.201c0.066,-3.243 -1.959,-6.162 -5.021,-7.232Zm-30.882,103.249c-11.646,31.634 -27.376,60.949 -46.752,87.131c-23.267,31.439 -51.902,58.438 -85.166,80.311c-33.161,-21.804 -61.724,-48.706 -84.951,-80.021c-19.364,-26.106 -35.1,-55.339 -46.77,-86.885c-14.285,-38.615 -19.648,-73.986 -20.847,-91.476l152.568,-53.398l152.523,53.383c-0.961,13.008 -4.897,48.289 -20.605,90.955Z" style="fill:#5d5d5d;fill-rule:nonzero;"/><path d="M318.652,282.763c-2.929,-2.929 -7.678,-2.929 -10.606,0l-62.66,62.66l-37.946,-37.946c-2.929,-2.929 -7.678,-2.929 -10.606,0c-2.929,2.929 -2.929,7.677 0,10.606l43.249,43.249c1.464,1.464 3.384,2.197 5.303,2.197c1.919,0 3.839,-0.732 5.303,-2.197l67.963,-67.963c2.929,-2.929 2.929,-7.678 0,-10.606Z" style="fill:#5d5d5d;fill-rule:nonzero;"/><path d="M354.713,220.381l-96.178,-33.662c-0.751,-0.271 -1.549,-0.423 -2.362,-0.441l-0.001,0c-0.006,0 -0.011,-0.001 -0.02,-0.001c-0.007,0 -0.012,0.001 -0.02,0l-0.132,0l-0.001,0l-0.1,0c-0.005,0.001 -0.007,0.001 -0.017,0c-0.006,0 -0.013,0 -0.018,0c-0.823,0.015 -1.63,0.166 -2.391,0.439l-125.983,44.095c-3.39,1.187 -5.462,4.609 -4.944,8.162c2.999,20.552 9.869,52.479 25.565,87.861c18.711,42.178 45.238,78.825 78.846,108.922c1.432,1.282 3.219,1.913 5.001,1.913c2.058,0 4.108,-0.842 5.589,-2.496c2.765,-3.086 2.503,-7.827 -0.583,-10.591c-32.016,-28.672 -57.297,-63.605 -75.142,-103.831c-13.531,-30.502 -20.198,-58.292 -23.477,-77.848l117.655,-41.178l93.758,32.815c3.91,1.37 8.188,-0.692 9.557,-4.601c1.368,-3.91 -0.692,-8.188 -4.602,-9.558Z" style="fill:#5d5d5d;fill-rule:nonzero;"/><path d="M383.035,230.433c-4.097,-0.618 -7.917,2.203 -8.534,6.299c-3.363,22.313 -11.201,56.783 -29.441,94.291c-22.06,45.361 -53.519,83.234 -93.505,112.568c-3.34,2.45 -4.062,7.144 -1.611,10.483c1.47,2.003 3.746,3.064 6.053,3.064c1.54,0 3.094,-0.473 4.43,-1.453c41.972,-30.791 74.985,-70.526 98.123,-118.103c19.068,-39.21 27.265,-75.27 30.783,-98.615c0.618,-4.096 -2.202,-7.917 -6.298,-8.534Z" style="fill:#5d5d5d;fill-rule:nonzero;"/></svg>